# car — SDF round-trip @ 48^3 (scripts/sdf-roundtrip.js, req_2604)
# source retired-source:car.obj  src_tris 180
v -0.2507 -0.4741 -1.1150
v -0.2172 -0.4741 -1.1150
v -0.1280 -0.4699 -1.1114
v -0.1110 -0.4699 -1.1114
v -0.2507 -0.4562 -1.1150
v -0.2172 -0.4562 -1.1150
v -0.1280 -0.4567 -1.1114
v -0.1110 -0.4567 -1.1114
v -0.2939 -0.2944 -1.1079
v -0.2866 -0.2944 -1.1079
v -0.2939 -0.2883 -1.1079
v -0.2866 -0.2883 -1.1079
v -0.2377 -0.0615 -1.1090
v -0.2268 -0.0615 -1.1090
v 0.0513 -0.0673 -1.1133
v 0.0699 -0.0673 -1.1133
v -0.2377 -0.0528 -1.1090
v -0.2268 -0.0528 -1.1090
v 0.0513 -0.0494 -1.1133
v 0.0699 -0.0494 -1.1133
v -0.4680 -0.4666 -1.0490
v -0.4626 -0.4666 -1.0490
v -0.2507 -0.4741 -1.0958
v -0.2172 -0.4741 -1.0958
v -0.1280 -0.4699 -1.0990
v -0.1110 -0.4699 -1.0990
v -0.4755 -0.4364 -1.0554
v -0.4558 -0.4364 -1.0554
v -0.2507 -0.4562 -1.0958
v -0.2172 -0.4562 -1.0958
v -0.1280 -0.4567 -1.0990
v -0.1110 -0.4567 -1.0990
v -0.4764 -0.3997 -1.0563
v -0.4554 -0.3997 -1.0563
v -0.2939 -0.2944 -1.1030
v -0.2866 -0.2944 -1.1030
v -0.2939 -0.2883 -1.1030
v -0.2866 -0.2883 -1.1030
v -0.4756 -0.1291 -1.0574
v -0.4553 -0.1291 -1.0574
v -0.4756 -0.1042 -1.0574
v -0.4553 -0.1042 -1.0574
v -0.2377 -0.0615 -1.1022
v -0.2268 -0.0615 -1.1022
v 0.0513 -0.0673 -1.0976
v 0.0699 -0.0673 -1.0976
v -0.2377 -0.0528 -1.1022
v -0.2268 -0.0528 -1.1022
v 0.0513 -0.0494 -1.0976
v 0.0699 -0.0494 -1.0976
v -0.4680 -0.4666 -1.0461
v -0.4626 -0.4666 -1.0461
v -0.4755 -0.4364 -1.0394
v -0.4558 -0.4364 -1.0394
v -0.4764 -0.3997 -1.0379
v -0.4554 -0.3997 -1.0379
v -0.4756 -0.1291 -1.0351
v -0.4553 -0.1291 -1.0351
v -0.4756 -0.1042 -1.0351
v -0.4553 -0.1042 -1.0351
v 0.4556 -0.0697 -1.0025
v 0.4758 -0.0697 -1.0025
v 0.4556 -0.0467 -1.0025
v 0.4758 -0.0467 -1.0025
v -0.1786 -0.4674 -0.9329
v -0.1724 -0.4674 -0.9329
v 0.1701 -0.4677 -0.9332
v 0.1842 -0.4677 -0.9332
v -0.1786 -0.4597 -0.9329
v -0.1724 -0.4597 -0.9329
v 0.1701 -0.4631 -0.9332
v 0.1842 -0.4631 -0.9332
v -0.4786 -0.3605 -0.9437
v -0.4546 -0.3605 -0.9437
v -0.4835 -0.3200 -0.9484
v -0.4486 -0.3200 -0.9484
v -0.4764 -0.2807 -0.9414
v -0.4538 -0.2807 -0.9414
v 0.4556 -0.0697 -0.9777
v 0.4758 -0.0697 -0.9777
v 0.4556 -0.0467 -0.9777
v 0.4758 -0.0467 -0.9777
v -0.1786 -0.4674 -0.9280
v -0.1724 -0.4674 -0.9280
v 0.1701 -0.4677 -0.9278
v 0.1842 -0.4677 -0.9278
v -0.1786 -0.4597 -0.9280
v -0.1724 -0.4597 -0.9280
v 0.1701 -0.4631 -0.9278
v 0.1842 -0.4631 -0.9278
v -0.4786 -0.3605 -0.9195
v -0.4546 -0.3605 -0.9195
v -0.4835 -0.3200 -0.9136
v -0.4338 -0.3099 -0.8990
v -0.4014 -0.2965 -0.8796
v -0.4743 -0.2593 -0.8980
v -0.4391 -0.2641 -0.8919
v -0.4014 -0.2738 -0.8796
v -0.4723 -0.2285 -0.8767
v -0.4494 -0.2285 -0.8767
v -0.4141 -0.2965 -0.8676
v -0.4014 -0.2965 -0.8676
v -0.4723 -0.2378 -0.8670
v -0.4317 -0.2558 -0.8673
v -0.4014 -0.2738 -0.8676
v -0.4723 -0.2285 -0.8670
v -0.4494 -0.2285 -0.8670
v -0.4779 -0.0124 -0.7687
v -0.4545 -0.0124 -0.7687
v 0.4538 -0.0123 -0.7690
v 0.4784 -0.0123 -0.7690
v -0.4779 0.0120 -0.7687
v -0.4545 0.0120 -0.7687
v 0.4538 0.0125 -0.7690
v 0.4784 0.0125 -0.7690
v -0.4779 -0.0124 -0.7447
v -0.4545 -0.0124 -0.7447
v 0.4538 -0.0123 -0.7441
v 0.4784 -0.0123 -0.7441
v -0.4779 0.0120 -0.7447
v -0.4545 0.0120 -0.7447
v 0.4538 0.0125 -0.7441
v 0.4784 0.0125 -0.7441
v -0.1855 -0.3641 -0.6508
v -0.1646 -0.3641 -0.6508
v -0.1873 -0.3200 -0.6533
v -0.1594 -0.3200 -0.6533
v -0.1806 -0.2842 -0.6470
v -0.1643 -0.2842 -0.6470
v 0.4573 -0.2365 -0.6440
v 0.4710 -0.2365 -0.6440
v 0.4573 -0.2283 -0.6440
v 0.4710 -0.2283 -0.6440
v -0.4759 -0.0090 -0.6479
v -0.4583 -0.0090 -0.6479
v -0.4759 0.0103 -0.6479
v -0.4583 0.0103 -0.6479
v 0.1074 -0.4698 -0.5899
v 0.1255 -0.4698 -0.5899
v 0.1074 -0.4584 -0.5899
v 0.1255 -0.4584 -0.5899
v -0.1855 -0.3641 -0.6307
v -0.1646 -0.3641 -0.6307
v -0.1873 -0.3200 -0.6276
v -0.1594 -0.3200 -0.6276
v -0.1806 -0.2842 -0.6329
v -0.1643 -0.2842 -0.6329
v 0.4528 -0.2415 -0.6109
v 0.4782 -0.2415 -0.6109
v 0.4528 -0.2238 -0.6109
v 0.4782 -0.2238 -0.6109
v -0.4759 -0.0090 -0.6320
v -0.4583 -0.0090 -0.6320
v -0.4759 0.0103 -0.6320
v -0.4583 0.0103 -0.6320
v 0.1074 -0.4698 -0.5713
v 0.1255 -0.4698 -0.5713
v 0.1074 -0.4584 -0.5713
v 0.1255 -0.4584 -0.5713
v 0.4568 -0.2407 -0.5731
v 0.4769 -0.2407 -0.5731
v 0.4568 -0.2253 -0.5731
v 0.4769 -0.2253 -0.5731
v -0.4729 0.4612 -0.4140
v -0.4591 0.4612 -0.4140
v -0.1779 0.4634 -0.4113
v -0.1712 0.4634 -0.4113
v 0.1726 0.4643 -0.4096
v 0.1765 0.4643 -0.4096
v -0.4729 0.4695 -0.4140
v -0.4591 0.4695 -0.4140
v -0.1779 0.4675 -0.4113
v -0.1712 0.4675 -0.4113
v 0.1726 0.4666 -0.4096
v 0.1765 0.4666 -0.4096
v -0.4729 0.4612 -0.3978
v -0.4591 0.4612 -0.3978
v -0.1779 0.4634 -0.4044
v -0.1712 0.4634 -0.4044
v 0.1726 0.4643 -0.4054
v 0.1765 0.4643 -0.4054
v -0.4729 0.4695 -0.3978
v -0.4591 0.4695 -0.3978
v -0.1779 0.4675 -0.4044
v -0.1712 0.4675 -0.4044
v 0.1726 0.4666 -0.4054
v 0.1765 0.4666 -0.4054
v -0.1780 -0.4684 0.5198
v -0.1707 -0.4684 0.5198
v -0.1780 -0.4626 0.5198
v -0.1707 -0.4626 0.5198
v -0.2385 0.4605 0.5140
v -0.2036 0.4586 0.5091
v -0.1696 0.4613 0.5139
v 0.1125 0.4621 0.5183
v 0.1455 0.4591 0.5123
v 0.1808 0.4602 0.5139
v 0.4629 0.4633 0.5204
v 0.4693 0.4633 0.5204
v -0.2385 0.4698 0.5140
v -0.2036 0.4715 0.5091
v -0.1696 0.4692 0.5139
v 0.1125 0.4683 0.5183
v 0.1455 0.4712 0.5123
v 0.1808 0.4702 0.5139
v 0.4629 0.4673 0.5204
v 0.4693 0.4673 0.5204
v -0.1800 -0.4688 0.5527
v -0.1688 -0.4688 0.5527
v -0.1800 -0.4575 0.5527
v -0.1688 -0.4575 0.5527
v -0.4769 -0.2410 0.5731
v -0.4568 -0.2410 0.5731
v -0.4769 -0.2253 0.5731
v -0.4568 -0.2253 0.5731
v 0.4575 0.0498 0.5743
v 0.4769 0.0498 0.5743
v 0.4575 0.0660 0.5743
v 0.4769 0.0660 0.5743
v -0.2385 0.4605 0.5325
v -0.2036 0.4586 0.5362
v -0.1696 0.4613 0.5315
v 0.1125 0.4621 0.5301
v 0.1455 0.4591 0.5356
v 0.1808 0.4602 0.5331
v 0.4629 0.4633 0.5281
v 0.4693 0.4633 0.5281
v -0.2385 0.4698 0.5325
v -0.2036 0.4715 0.5362
v -0.1696 0.4692 0.5315
v 0.1125 0.4683 0.5301
v 0.1455 0.4712 0.5356
v 0.1808 0.4702 0.5331
v 0.4629 0.4673 0.5281
v 0.4693 0.4673 0.5281
v -0.1784 -0.4670 0.5838
v -0.1707 -0.4670 0.5838
v -0.1784 -0.4577 0.5838
v -0.1707 -0.4577 0.5838
v 0.1641 -0.3609 0.6307
v 0.1855 -0.3609 0.6307
v 0.1590 -0.3200 0.6276
v 0.1873 -0.3200 0.6276
v -0.4782 -0.2419 0.6109
v -0.4528 -0.2419 0.6109
v 0.1642 -0.2842 0.6329
v 0.1806 -0.2842 0.6329
v -0.4782 -0.2238 0.6109
v -0.4528 -0.2238 0.6109
v 0.4581 -0.0090 0.6321
v 0.4758 -0.0090 0.6321
v 0.4521 0.0299 0.6120
v 0.4842 0.0299 0.6120
v 0.4543 0.0698 0.6109
v 0.4810 0.0698 0.6109
v 0.1641 -0.3609 0.6497
v 0.1855 -0.3609 0.6497
v 0.1590 -0.3200 0.6525
v 0.1873 -0.3200 0.6525
v -0.4710 -0.2367 0.6440
v -0.4573 -0.2367 0.6440
v 0.1642 -0.2842 0.6470
v 0.1806 -0.2842 0.6470
v -0.4710 -0.2283 0.6440
v -0.4573 -0.2283 0.6440
v 0.4581 -0.0090 0.6476
v 0.4758 -0.0090 0.6476
v 0.4547 0.0291 0.6514
v 0.4803 0.0291 0.6514
v 0.4585 0.0658 0.6476
v 0.4748 0.0658 0.6476
v -0.4783 -0.0122 0.7441
v -0.4533 -0.0122 0.7441
v -0.4783 0.0124 0.7441
v -0.4533 0.0124 0.7441
v -0.4783 -0.0122 0.7691
v -0.4533 -0.0122 0.7691
v -0.4783 0.0124 0.7691
v -0.4533 0.0124 0.7691
v 0.4009 -0.2959 0.8677
v 0.4137 -0.2959 0.8677
v 0.4009 -0.2739 0.8677
v 0.4317 -0.2555 0.8676
v 0.4718 -0.2371 0.8675
v 0.4497 -0.2289 0.8675
v 0.4718 -0.2289 0.8675
v -0.1842 -0.4677 0.9272
v -0.1648 -0.4677 0.9272
v 0.1638 -0.4681 0.9283
v 0.1780 -0.4681 0.9283
v -0.1842 -0.4630 0.9272
v -0.1648 -0.4630 0.9272
v 0.1638 -0.4610 0.9283
v 0.1780 -0.4610 0.9283
v 0.4009 -0.2959 0.8793
v 0.4137 -0.2959 0.8793
v 0.4009 -0.2739 0.8793
v 0.4317 -0.2555 0.8778
v 0.4718 -0.2371 0.8764
v 0.4497 -0.2289 0.8764
v 0.4718 -0.2289 0.8764
v -0.1842 -0.4677 0.9340
v -0.1648 -0.4677 0.9340
v 0.1638 -0.4681 0.9348
v 0.1780 -0.4681 0.9348
v -0.1842 -0.4630 0.9340
v -0.1648 -0.4630 0.9340
v 0.1638 -0.4610 0.9348
v 0.1780 -0.4610 0.9348
v -0.4778 -0.0124 0.9767
v -0.4549 -0.0124 0.9767
v 0.4535 -0.0121 0.9762
v 0.4784 -0.0121 0.9762
v -0.4778 0.0118 0.9767
v -0.4549 0.0118 0.9767
v 0.4535 0.0124 0.9762
v 0.4784 0.0124 0.9762
v -0.4778 -0.0124 1.0003
v -0.4549 -0.0124 1.0003
v 0.4535 -0.0121 1.0012
v 0.4784 -0.0121 1.0012
v -0.4778 0.0118 1.0003
v -0.4549 0.0118 1.0003
v 0.4535 0.0124 1.0012
v 0.4784 0.0124 1.0012
v -0.2360 -0.4677 1.1027
v -0.2281 -0.4677 1.1027
v 0.1142 -0.4667 1.1041
v 0.1188 -0.4667 1.1041
v 0.4633 -0.4666 1.1043
v 0.4678 -0.4666 1.1043
v -0.2360 -0.4614 1.1027
v -0.2281 -0.4614 1.1027
v 0.1142 -0.4634 1.1041
v 0.1188 -0.4634 1.1041
v 0.4633 -0.4638 1.1043
v 0.4678 -0.4638 1.1043
v -0.4731 -0.0053 1.1000
v -0.4589 -0.0053 1.1000
v -0.1259 -0.0080 1.0976
v -0.1102 -0.0080 1.0976
v 0.2224 -0.0088 1.0970
v 0.2391 -0.0088 1.0970
v -0.4731 0.0081 1.1000
v -0.4589 0.0081 1.1000
v -0.1259 0.0084 1.0976
v -0.1102 0.0084 1.0976
v 0.2224 0.0088 1.0970
v 0.2391 0.0088 1.0970
v -0.2360 -0.4677 1.1081
v -0.2281 -0.4677 1.1081
v 0.1142 -0.4667 1.1070
v 0.1188 -0.4667 1.1070
v 0.4633 -0.4666 1.1070
v 0.4678 -0.4666 1.1070
v -0.2360 -0.4614 1.1081
v -0.2281 -0.4614 1.1081
v 0.1142 -0.4634 1.1070
v 0.1188 -0.4634 1.1070
v 0.4633 -0.4638 1.1070
v 0.4678 -0.4638 1.1070
v -0.4731 -0.0053 1.1120
v -0.4589 -0.0053 1.1120
v -0.1259 -0.0080 1.1128
v -0.1102 -0.0080 1.1128
v 0.2224 -0.0088 1.1130
v 0.2391 -0.0088 1.1130
v -0.4731 0.0081 1.1120
v -0.4589 0.0081 1.1120
v -0.1259 0.0084 1.1128
v -0.1102 0.0084 1.1128
v 0.2224 0.0088 1.1130
v 0.2391 0.0088 1.1130
vn -0.552 -0.596 -0.584
vn 0.551 -0.658 -0.513
vn -0.046 -0.926 -0.376
vn 0.605 -0.712 -0.357
vn -0.603 0.563 -0.565
vn 0.609 0.566 -0.555
vn -0.410 -0.045 -0.911
vn 0.874 -0.140 -0.464
vn -0.849 0.265 -0.456
vn -0.127 0.079 -0.989
vn -0.677 0.685 -0.267
vn -0.262 0.885 -0.385
vn -0.496 -0.818 -0.292
vn 0.194 -0.963 -0.187
vn -0.775 -0.426 -0.468
vn 0.400 -0.758 -0.515
vn -0.800 -0.183 -0.572
vn 0.635 -0.294 -0.714
vn -0.739 0.456 -0.496
vn 0.241 0.619 -0.748
vn -0.091 -0.987 0.134
vn 0.010 -0.988 0.152
vn -0.553 -0.574 0.604
vn 0.567 -0.574 0.591
vn -0.167 -0.872 0.459
vn 0.597 -0.773 0.216
vn -0.502 -0.739 -0.449
vn 0.469 -0.807 -0.360
vn -0.563 0.564 0.604
vn 0.566 0.507 0.650
vn -0.396 0.117 0.911
vn 0.863 -0.030 0.505
vn -0.352 0.789 -0.503
vn 0.392 0.838 -0.379
vn -0.870 0.316 0.378
vn -0.019 0.135 0.991
vn -0.659 0.710 0.249
vn -0.209 0.866 0.453
vn -0.587 -0.530 -0.613
vn 0.588 -0.502 -0.634
vn -0.447 0.551 -0.704
vn 0.595 0.613 -0.519
vn -0.399 -0.826 0.398
vn 0.241 -0.809 0.537
vn -0.653 -0.511 0.559
vn 0.338 -0.696 0.634
vn -0.739 -0.294 0.605
vn 0.487 -0.237 0.840
vn -0.831 0.386 0.400
vn 0.382 0.491 0.783
vn -0.079 -0.969 0.233
vn 0.019 -0.968 0.250
vn -0.361 -0.776 0.517
vn 0.444 -0.666 0.599
vn -0.331 0.868 0.371
vn 0.520 0.745 0.419
vn -0.512 -0.677 0.529
vn 0.625 -0.481 0.614
vn -0.447 0.687 0.573
vn 0.696 0.547 0.465
vn -0.630 -0.670 -0.392
vn 0.419 -0.693 -0.587
vn -0.712 0.492 -0.501
vn 0.600 0.581 -0.550
vn 0.266 -0.869 -0.417
vn 0.515 -0.750 -0.416
vn -0.664 -0.385 -0.641
vn 0.010 -0.354 -0.935
vn 0.426 -0.694 -0.580
vn 0.688 -0.518 -0.509
vn -0.645 0.202 -0.738
vn 0.048 0.341 -0.939
vn -0.298 -0.849 -0.437
vn 0.615 -0.687 -0.387
vn -0.653 0.218 -0.725
vn 0.710 0.069 -0.700
vn -0.341 0.810 -0.477
vn 0.403 0.718 -0.568
vn -0.647 -0.532 0.546
vn 0.334 -0.641 0.691
vn -0.625 0.383 0.681
vn 0.438 0.578 0.688
vn 0.242 -0.962 -0.129
vn 0.529 -0.831 -0.173
vn -0.828 -0.557 -0.065
vn -0.032 -0.952 -0.305
vn 0.467 -0.871 -0.153
vn 0.774 -0.605 -0.188
vn -0.970 0.145 -0.194
vn 0.086 0.749 -0.657
vn -0.314 -0.773 0.552
vn 0.525 -0.747 0.409
vn -0.702 0.086 0.707
vn 0.645 -0.429 0.633
vn 0.584 -0.808 -0.075
vn -0.707 0.669 0.229
vn -0.000 0.891 -0.453
vn 0.802 0.004 -0.598
vn -0.571 0.558 -0.602
vn 0.153 0.749 -0.644
vn -0.135 -0.779 0.612
vn 0.403 -0.803 0.438
vn -0.935 -0.252 0.250
vn -0.788 -0.329 0.521
vn 0.824 -0.325 0.464
vn -0.791 0.611 0.035
vn 0.099 0.970 -0.222
vn -0.464 -0.655 -0.596
vn 0.698 -0.541 -0.468
vn -0.603 -0.647 -0.466
vn 0.461 -0.633 -0.622
vn -0.483 0.652 -0.584
vn 0.663 0.500 -0.557
vn -0.667 0.538 -0.516
vn 0.564 0.565 -0.602
vn -0.429 -0.603 0.673
vn 0.611 -0.611 0.503
vn -0.683 -0.521 0.512
vn 0.471 -0.639 0.608
vn -0.520 0.575 0.632
vn 0.644 0.532 0.550
vn -0.649 0.456 0.610
vn 0.482 0.611 0.628
vn -0.614 -0.631 -0.475
vn 0.581 -0.691 -0.430
vn -0.694 0.342 -0.633
vn 0.676 0.251 -0.693
vn -0.404 0.882 -0.242
vn 0.179 0.920 -0.349
vn -0.033 -0.240 -0.970
vn 0.292 -0.267 -0.919
vn -0.089 0.186 -0.978
vn 0.272 0.081 -0.959
vn -0.228 -0.759 -0.610
vn 0.705 -0.606 -0.368
vn -0.376 0.562 -0.737
vn 0.785 0.369 -0.498
vn -0.329 -0.839 -0.433
vn 0.451 -0.683 -0.575
vn -0.635 0.290 -0.716
vn 0.571 0.085 -0.817
vn -0.498 -0.702 0.509
vn 0.521 -0.658 0.544
vn -0.679 0.392 0.621
vn 0.687 0.205 0.697
vn -0.441 0.852 0.282
vn 0.119 0.956 0.267
vn -0.725 -0.559 -0.403
vn 0.578 -0.604 -0.549
vn -0.699 0.671 -0.249
vn 0.578 0.642 -0.504
vn -0.174 -0.745 0.644
vn 0.664 -0.595 0.454
vn -0.380 0.547 0.746
vn 0.811 0.300 0.503
vn -0.574 -0.691 0.439
vn 0.292 -0.934 0.205
vn -0.779 0.223 0.586
vn 0.642 0.353 0.681
vn -0.560 -0.255 0.788
vn 0.266 -0.398 0.878
vn -0.552 0.425 0.717
vn 0.224 0.533 0.816
vn -0.485 -0.291 -0.825
vn 0.710 -0.305 -0.634
vn -0.754 -0.502 0.423
vn 0.796 -0.514 0.319
vn -0.757 -0.265 0.598
vn 0.808 -0.272 0.523
vn -0.336 0.666 -0.667
vn 0.507 0.614 -0.605
vn -0.579 0.781 0.233
vn 0.574 0.812 0.111
vn -0.492 0.820 0.293
vn 0.498 0.840 0.214
vn -0.470 -0.712 0.522
vn 0.737 -0.536 0.412
vn -0.400 -0.332 0.854
vn 0.284 -0.361 0.888
vn -0.375 -0.236 0.896
vn 0.288 -0.254 0.923
vn -0.458 0.822 0.339
vn 0.730 0.602 0.323
vn -0.406 0.357 0.841
vn 0.305 0.425 0.852
vn -0.369 0.413 0.833
vn 0.286 0.457 0.842
vn -0.356 -0.228 -0.906
vn 0.091 -0.233 -0.968
vn -0.324 0.218 -0.920
vn 0.105 0.269 -0.957
vn -0.906 -0.251 -0.342
vn 0.075 -0.641 -0.764
vn 0.937 -0.208 -0.282
vn -0.944 -0.107 -0.312
vn -0.357 -0.542 -0.761
vn 0.867 -0.289 -0.406
vn -0.754 -0.052 -0.655
vn -0.278 -0.074 -0.958
vn -0.876 0.396 -0.276
vn 0.064 0.778 -0.626
vn 0.926 0.285 -0.247
vn -0.917 0.302 -0.261
vn -0.352 0.690 -0.633
vn 0.862 0.335 -0.380
vn -0.689 0.480 -0.543
vn -0.230 0.656 -0.719
vn -0.431 -0.897 0.096
vn 0.326 -0.936 0.133
vn -0.795 0.147 -0.589
vn 0.821 0.311 -0.478
vn -0.272 -0.381 -0.884
vn 0.560 -0.238 -0.794
vn -0.221 0.548 -0.807
vn 0.548 0.439 -0.712
vn -0.507 -0.253 -0.824
vn 0.175 -0.344 -0.923
vn -0.563 0.359 -0.745
vn 0.151 0.393 -0.907
vn -0.964 -0.109 0.243
vn 0.196 -0.418 0.887
vn 0.971 -0.122 0.207
vn -0.998 -0.007 0.068
vn -0.496 -0.446 0.745
vn 0.948 -0.241 0.206
vn -0.982 0.118 -0.145
vn -0.784 0.461 -0.415
vn -0.818 0.497 0.291
vn 0.084 0.803 0.590
vn 0.876 0.408 0.256
vn -0.914 0.388 0.116
vn -0.270 0.811 0.519
vn 0.835 0.484 0.263
vn -0.746 0.665 -0.037
vn -0.230 0.973 -0.015
vn -0.102 -0.689 0.718
vn 0.066 -0.697 0.714
vn -0.070 -0.481 0.874
vn 0.159 -0.464 0.872
vn -0.422 -0.756 -0.500
vn 0.513 -0.763 -0.392
vn -0.682 0.248 -0.688
vn 0.701 0.393 -0.595
vn -0.588 -0.588 0.556
vn 0.734 -0.539 0.413
vn -0.116 0.958 -0.262
vn 0.443 0.851 -0.281
vn -0.568 0.657 0.495
vn 0.688 0.683 0.245
vn -0.509 -0.789 -0.345
vn 0.132 -0.896 -0.424
vn -0.688 -0.536 -0.490
vn 0.574 -0.614 -0.542
vn -0.678 0.732 0.057
vn 0.455 0.884 0.106
vn -0.415 -0.765 0.493
vn 0.571 -0.668 0.476
vn -0.648 0.252 0.719
vn 0.701 0.303 0.646
vn -0.292 -0.247 0.924
vn 0.035 -0.219 0.975
vn -0.178 0.919 0.351
vn 0.409 0.879 0.244
vn -0.272 0.103 0.957
vn 0.089 0.207 0.974
vn -0.544 -0.782 0.303
vn 0.168 -0.888 0.427
vn -0.661 0.029 0.750
vn 0.503 0.049 0.863
vn -0.375 0.689 0.620
vn 0.117 0.694 0.710
vn -0.489 -0.629 -0.605
vn 0.668 -0.537 -0.516
vn -0.502 0.599 -0.624
vn 0.630 0.460 -0.626
vn -0.473 -0.633 0.614
vn 0.591 -0.657 0.468
vn -0.584 0.558 0.589
vn 0.658 0.534 0.530
vn -0.250 -0.835 -0.491
vn 0.279 -0.840 -0.465
vn -0.787 -0.326 -0.523
vn 0.923 -0.362 0.128
vn 0.965 -0.262 0.017
vn -0.065 0.957 0.281
vn 0.824 0.567 0.018
vn -0.473 -0.852 -0.225
vn 0.463 -0.716 -0.522
vn 0.317 -0.851 -0.419
vn 0.657 -0.567 -0.497
vn -0.944 0.298 -0.144
vn 0.744 0.065 -0.665
vn 0.484 -0.463 -0.742
vn 0.755 -0.257 -0.603
vn -0.300 -0.948 0.107
vn 0.359 -0.926 0.122
vn -0.648 0.034 0.761
vn 0.536 -0.036 0.844
vn 0.710 -0.188 0.678
vn -0.134 0.695 0.707
vn 0.624 0.425 0.655
vn -0.473 -0.550 0.688
vn 0.419 -0.829 0.371
vn 0.170 -0.970 0.171
vn 0.699 -0.691 -0.182
vn -0.507 0.314 0.803
vn 0.557 0.423 0.715
vn 0.334 -0.756 0.562
vn 0.920 -0.329 -0.215
vn -0.448 -0.667 -0.596
vn 0.710 -0.538 -0.455
vn -0.600 -0.658 -0.455
vn 0.477 -0.642 -0.600
vn -0.472 0.672 -0.570
vn 0.677 0.510 -0.531
vn -0.670 0.534 -0.516
vn 0.584 0.561 -0.587
vn -0.415 -0.590 0.693
vn 0.624 -0.591 0.511
vn -0.667 -0.532 0.522
vn 0.480 -0.631 0.610
vn -0.495 0.581 0.646
vn 0.644 0.530 0.552
vn -0.635 0.450 0.628
vn 0.494 0.591 0.637
vn -0.449 -0.888 -0.095
vn 0.046 -0.961 -0.273
vn -0.228 -0.929 -0.290
vn 0.119 -0.908 -0.401
vn -0.254 -0.807 -0.533
vn 0.039 -0.838 -0.545
vn -0.743 -0.614 -0.266
vn 0.072 -0.765 -0.640
vn -0.317 -0.821 -0.475
vn 0.172 -0.772 -0.612
vn -0.310 -0.644 -0.700
vn 0.061 -0.678 -0.732
vn -0.318 -0.757 -0.571
vn 0.451 -0.720 -0.528
vn -0.387 -0.714 -0.584
vn 0.601 -0.606 -0.521
vn -0.379 -0.714 -0.588
vn 0.640 -0.589 -0.494
vn -0.523 0.177 -0.834
vn 0.679 0.148 -0.719
vn -0.454 0.426 -0.783
vn 0.809 0.408 -0.422
vn -0.436 0.483 -0.760
vn 0.828 0.424 -0.366
vn -0.493 -0.803 0.336
vn -0.068 -0.967 0.246
vn -0.303 -0.951 0.060
vn 0.051 -0.997 -0.058
vn -0.282 -0.922 -0.265
vn 0.056 -0.963 -0.263
vn -0.726 -0.536 0.431
vn -0.154 -0.905 0.397
vn -0.443 -0.895 0.041
vn 0.090 -0.985 -0.146
vn -0.384 -0.832 -0.400
vn 0.097 -0.903 -0.418
vn -0.369 -0.861 0.350
vn 0.535 -0.776 0.333
vn -0.394 -0.766 0.508
vn 0.705 -0.492 0.510
vn -0.361 -0.752 0.552
vn 0.730 -0.432 0.530
vn -0.682 0.292 0.671
vn 0.815 0.213 0.538
vn -0.286 0.549 0.785
vn 0.732 0.420 0.537
vn -0.219 0.572 0.791
vn 0.732 0.409 0.545
f 1//1 5//5 6//6
f 1//1 6//6 2//2
f 3//3 7//7 8//8
f 3//3 8//8 4//4
f 9//9 11//11 12//12
f 9//9 12//12 10//10
f 13//13 17//17 18//18
f 13//13 18//18 14//14
f 15//15 19//19 20//20
f 15//15 20//20 16//16
f 1//1 2//2 24//24
f 1//1 24//24 23//23
f 3//3 4//4 26//26
f 3//3 26//26 25//25
f 21//21 27//27 28//28
f 21//21 28//28 22//22
f 1//1 23//23 29//29
f 1//1 29//29 5//5
f 2//2 6//6 30//30
f 2//2 30//30 24//24
f 5//5 29//29 30//30
f 5//5 30//30 6//6
f 23//23 24//24 30//30
f 23//23 30//30 29//29
f 3//3 25//25 31//31
f 3//3 31//31 7//7
f 4//4 8//8 32//32
f 4//4 32//32 26//26
f 7//7 31//31 32//32
f 7//7 32//32 8//8
f 25//25 26//26 32//32
f 25//25 32//32 31//31
f 27//27 33//33 34//34
f 27//27 34//34 28//28
f 9//9 10//10 36//36
f 9//9 36//36 35//35
f 9//9 35//35 37//37
f 9//9 37//37 11//11
f 10//10 12//12 38//38
f 10//10 38//38 36//36
f 11//11 37//37 38//38
f 11//11 38//38 12//12
f 35//35 36//36 38//38
f 35//35 38//38 37//37
f 39//39 41//41 42//42
f 39//39 42//42 40//40
f 13//13 14//14 44//44
f 13//13 44//44 43//43
f 15//15 16//16 46//46
f 15//15 46//46 45//45
f 13//13 43//43 47//47
f 13//13 47//47 17//17
f 14//14 18//18 48//48
f 14//14 48//48 44//44
f 17//17 47//47 48//48
f 17//17 48//48 18//18
f 43//43 44//44 48//48
f 43//43 48//48 47//47
f 15//15 45//45 49//49
f 15//15 49//49 19//19
f 16//16 20//20 50//50
f 16//16 50//50 46//46
f 19//19 49//49 50//50
f 19//19 50//50 20//20
f 45//45 46//46 50//50
f 45//45 50//50 49//49
f 21//21 22//22 52//52
f 21//21 52//52 51//51
f 21//21 51//51 53//53
f 21//21 53//53 27//27
f 22//22 28//28 54//54
f 22//22 54//54 52//52
f 51//51 52//52 54//54
f 51//51 54//54 53//53
f 27//27 53//53 55//55
f 27//27 55//55 33//33
f 28//28 34//34 56//56
f 28//28 56//56 54//54
f 33//33 55//55 56//56
f 33//33 56//56 34//34
f 53//53 54//54 56//56
f 53//53 56//56 55//55
f 39//39 40//40 58//58
f 39//39 58//58 57//57
f 39//39 57//57 59//59
f 39//39 59//59 41//41
f 40//40 42//42 60//60
f 40//40 60//60 58//58
f 41//41 59//59 60//60
f 41//41 60//60 42//42
f 57//57 58//58 60//60
f 57//57 60//60 59//59
f 61//61 63//63 64//64
f 61//61 64//64 62//62
f 65//65 69//69 70//70
f 65//65 70//70 66//66
f 67//67 71//71 72//72
f 67//67 72//72 68//68
f 73//73 75//75 76//76
f 73//73 76//76 74//74
f 75//75 77//77 78//78
f 75//75 78//78 76//76
f 61//61 62//62 80//80
f 61//61 80//80 79//79
f 61//61 79//79 81//81
f 61//61 81//81 63//63
f 62//62 64//64 82//82
f 62//62 82//82 80//80
f 63//63 81//81 82//82
f 63//63 82//82 64//64
f 79//79 80//80 82//82
f 79//79 82//82 81//81
f 65//65 66//66 84//84
f 65//65 84//84 83//83
f 67//67 68//68 86//86
f 67//67 86//86 85//85
f 65//65 83//83 87//87
f 65//65 87//87 69//69
f 66//66 70//70 88//88
f 66//66 88//88 84//84
f 69//69 87//87 88//88
f 69//69 88//88 70//70
f 83//83 84//84 88//88
f 83//83 88//88 87//87
f 67//67 85//85 89//89
f 67//67 89//89 71//71
f 68//68 72//72 90//90
f 68//68 90//90 86//86
f 71//71 89//89 90//90
f 71//71 90//90 72//72
f 85//85 86//86 90//90
f 85//85 90//90 89//89
f 73//73 74//74 92//92
f 73//73 92//92 91//91
f 73//73 91//91 93//93
f 73//73 93//93 75//75
f 74//74 76//76 94//94
f 74//74 94//94 92//92
f 91//91 92//92 94//94
f 91//91 94//94 93//93
f 75//75 93//93 96//96
f 75//75 96//96 77//77
f 76//76 78//78 97//97
f 76//76 97//97 94//94
f 77//77 96//96 97//97
f 77//77 97//97 78//78
f 93//93 94//94 97//97
f 93//93 97//97 96//96
f 94//94 97//97 98//98
f 94//94 98//98 95//95
f 96//96 99//99 100//100
f 96//96 100//100 97//97
f 94//94 95//95 102//102
f 94//94 102//102 101//101
f 94//94 101//101 104//104
f 94//94 104//104 97//97
f 96//96 97//97 104//104
f 96//96 104//104 103//103
f 95//95 98//98 105//105
f 95//95 105//105 102//102
f 97//97 104//104 105//105
f 97//97 105//105 98//98
f 101//101 102//102 105//105
f 101//101 105//105 104//104
f 96//96 103//103 106//106
f 96//96 106//106 99//99
f 97//97 100//100 107//107
f 97//97 107//107 104//104
f 99//99 106//106 107//107
f 99//99 107//107 100//100
f 103//103 104//104 107//107
f 103//103 107//107 106//106
f 108//108 112//112 113//113
f 108//108 113//113 109//109
f 110//110 114//114 115//115
f 110//110 115//115 111//111
f 108//108 109//109 117//117
f 108//108 117//117 116//116
f 110//110 111//111 119//119
f 110//110 119//119 118//118
f 108//108 116//116 120//120
f 108//108 120//120 112//112
f 109//109 113//113 121//121
f 109//109 121//121 117//117
f 112//112 120//120 121//121
f 112//112 121//121 113//113
f 116//116 117//117 121//121
f 116//116 121//121 120//120
f 110//110 118//118 122//122
f 110//110 122//122 114//114
f 111//111 115//115 123//123
f 111//111 123//123 119//119
f 114//114 122//122 123//123
f 114//114 123//123 115//115
f 118//118 119//119 123//123
f 118//118 123//123 122//122
f 124//124 126//126 127//127
f 124//124 127//127 125//125
f 126//126 128//128 129//129
f 126//126 129//129 127//127
f 130//130 132//132 133//133
f 130//130 133//133 131//131
f 134//134 136//136 137//137
f 134//134 137//137 135//135
f 138//138 140//140 141//141
f 138//138 141//141 139//139
f 124//124 125//125 143//143
f 124//124 143//143 142//142
f 124//124 142//142 144//144
f 124//124 144//144 126//126
f 125//125 127//127 145//145
f 125//125 145//145 143//143
f 142//142 143//143 145//145
f 142//142 145//145 144//144
f 126//126 144//144 146//146
f 126//126 146//146 128//128
f 127//127 129//129 147//147
f 127//127 147//147 145//145
f 128//128 146//146 147//147
f 128//128 147//147 129//129
f 144//144 145//145 147//147
f 144//144 147//147 146//146
f 130//130 131//131 149//149
f 130//130 149//149 148//148
f 130//130 148//148 150//150
f 130//130 150//150 132//132
f 131//131 133//133 151//151
f 131//131 151//151 149//149
f 132//132 150//150 151//151
f 132//132 151//151 133//133
f 134//134 135//135 153//153
f 134//134 153//153 152//152
f 134//134 152//152 154//154
f 134//134 154//154 136//136
f 135//135 137//137 155//155
f 135//135 155//155 153//153
f 136//136 154//154 155//155
f 136//136 155//155 137//137
f 152//152 153//153 155//155
f 152//152 155//155 154//154
f 138//138 139//139 157//157
f 138//138 157//157 156//156
f 138//138 156//156 158//158
f 138//138 158//158 140//140
f 139//139 141//141 159//159
f 139//139 159//159 157//157
f 140//140 158//158 159//159
f 140//140 159//159 141//141
f 156//156 157//157 159//159
f 156//156 159//159 158//158
f 148//148 149//149 161//161
f 148//148 161//161 160//160
f 148//148 160//160 162//162
f 148//148 162//162 150//150
f 149//149 151//151 163//163
f 149//149 163//163 161//161
f 150//150 162//162 163//163
f 150//150 163//163 151//151
f 160//160 161//161 163//163
f 160//160 163//163 162//162
f 164//164 170//170 171//171
f 164//164 171//171 165//165
f 166//166 172//172 173//173
f 166//166 173//173 167//167
f 168//168 174//174 175//175
f 168//168 175//175 169//169
f 164//164 165//165 177//177
f 164//164 177//177 176//176
f 166//166 167//167 179//179
f 166//166 179//179 178//178
f 168//168 169//169 181//181
f 168//168 181//181 180//180
f 164//164 176//176 182//182
f 164//164 182//182 170//170
f 165//165 171//171 183//183
f 165//165 183//183 177//177
f 170//170 182//182 183//183
f 170//170 183//183 171//171
f 176//176 177//177 183//183
f 176//176 183//183 182//182
f 166//166 178//178 184//184
f 166//166 184//184 172//172
f 167//167 173//173 185//185
f 167//167 185//185 179//179
f 172//172 184//184 185//185
f 172//172 185//185 173//173
f 178//178 179//179 185//185
f 178//178 185//185 184//184
f 168//168 180//180 186//186
f 168//168 186//186 174//174
f 169//169 175//175 187//187
f 169//169 187//187 181//181
f 174//174 186//186 187//187
f 174//174 187//187 175//175
f 180//180 181//181 187//187
f 180//180 187//187 186//186
f 188//188 190//190 191//191
f 188//188 191//191 189//189
f 192//192 200//200 201//201
f 192//192 201//201 193//193
f 193//193 201//201 202//202
f 193//193 202//202 194//194
f 195//195 203//203 204//204
f 195//195 204//204 196//196
f 196//196 204//204 205//205
f 196//196 205//205 197//197
f 198//198 206//206 207//207
f 198//198 207//207 199//199
f 188//188 189//189 209//209
f 188//188 209//209 208//208
f 188//188 208//208 210//210
f 188//188 210//210 190//190
f 189//189 191//191 211//211
f 189//189 211//211 209//209
f 190//190 210//210 211//211
f 190//190 211//211 191//191
f 212//212 214//214 215//215
f 212//212 215//215 213//213
f 216//216 218//218 219//219
f 216//216 219//219 217//217
f 192//192 193//193 221//221
f 192//192 221//221 220//220
f 193//193 194//194 222//222
f 193//193 222//222 221//221
f 195//195 196//196 224//224
f 195//195 224//224 223//223
f 196//196 197//197 225//225
f 196//196 225//225 224//224
f 198//198 199//199 227//227
f 198//198 227//227 226//226
f 192//192 220//220 228//228
f 192//192 228//228 200//200
f 200//200 228//228 229//229
f 200//200 229//229 201//201
f 220//220 221//221 229//229
f 220//220 229//229 228//228
f 194//194 202//202 230//230
f 194//194 230//230 222//222
f 201//201 229//229 230//230
f 201//201 230//230 202//202
f 221//221 222//222 230//230
f 221//221 230//230 229//229
f 195//195 223//223 231//231
f 195//195 231//231 203//203
f 203//203 231//231 232//232
f 203//203 232//232 204//204
f 223//223 224//224 232//232
f 223//223 232//232 231//231
f 197//197 205//205 233//233
f 197//197 233//233 225//225
f 204//204 232//232 233//233
f 204//204 233//233 205//205
f 224//224 225//225 233//233
f 224//224 233//233 232//232
f 198//198 226//226 234//234
f 198//198 234//234 206//206
f 199//199 207//207 235//235
f 199//199 235//235 227//227
f 206//206 234//234 235//235
f 206//206 235//235 207//207
f 226//226 227//227 235//235
f 226//226 235//235 234//234
f 208//208 209//209 237//237
f 208//208 237//237 236//236
f 208//208 236//236 238//238
f 208//208 238//238 210//210
f 209//209 211//211 239//239
f 209//209 239//239 237//237
f 210//210 238//238 239//239
f 210//210 239//239 211//211
f 236//236 237//237 239//239
f 236//236 239//239 238//238
f 240//240 242//242 243//243
f 240//240 243//243 241//241
f 212//212 213//213 245//245
f 212//212 245//245 244//244
f 242//242 246//246 247//247
f 242//242 247//247 243//243
f 212//212 244//244 248//248
f 212//212 248//248 214//214
f 213//213 215//215 249//249
f 213//213 249//249 245//245
f 214//214 248//248 249//249
f 214//214 249//249 215//215
f 216//216 217//217 253//253
f 216//216 253//253 252//252
f 250//250 252//252 253//253
f 250//250 253//253 251//251
f 216//216 252//252 254//254
f 216//216 254//254 218//218
f 217//217 219//219 255//255
f 217//217 255//255 253//253
f 218//218 254//254 255//255
f 218//218 255//255 219//219
f 240//240 241//241 257//257
f 240//240 257//257 256//256
f 240//240 256//256 258//258
f 240//240 258//258 242//242
f 241//241 243//243 259//259
f 241//241 259//259 257//257
f 256//256 257//257 259//259
f 256//256 259//259 258//258
f 244//244 245//245 261//261
f 244//244 261//261 260//260
f 242//242 258//258 262//262
f 242//242 262//262 246//246
f 243//243 247//247 263//263
f 243//243 263//263 259//259
f 246//246 262//262 263//263
f 246//246 263//263 247//247
f 258//258 259//259 263//263
f 258//258 263//263 262//262
f 244//244 260//260 264//264
f 244//244 264//264 248//248
f 245//245 249//249 265//265
f 245//245 265//265 261//261
f 248//248 264//264 265//265
f 248//248 265//265 249//249
f 260//260 261//261 265//265
f 260//260 265//265 264//264
f 250//250 251//251 267//267
f 250//250 267//267 266//266
f 250//250 266//266 268//268
f 250//250 268//268 252//252
f 251//251 253//253 269//269
f 251//251 269//269 267//267
f 266//266 267//267 269//269
f 266//266 269//269 268//268
f 252//252 268//268 270//270
f 252//252 270//270 254//254
f 253//253 255//255 271//271
f 253//253 271//271 269//269
f 254//254 270//270 271//271
f 254//254 271//271 255//255
f 268//268 269//269 271//271
f 268//268 271//271 270//270
f 272//272 274//274 275//275
f 272//272 275//275 273//273
f 272//272 273//273 277//277
f 272//272 277//277 276//276
f 272//272 276//276 278//278
f 272//272 278//278 274//274
f 273//273 275//275 279//279
f 273//273 279//279 277//277
f 274//274 278//278 279//279
f 274//274 279//279 275//275
f 276//276 277//277 279//279
f 276//276 279//279 278//278
f 280//280 282//282 283//283
f 280//280 283//283 281//281
f 283//283 285//285 286//286
f 283//283 286//286 284//284
f 287//287 291//291 292//292
f 287//287 292//292 288//288
f 289//289 293//293 294//294
f 289//289 294//294 290//290
f 280//280 281//281 296//296
f 280//280 296//296 295//295
f 280//280 295//295 297//297
f 280//280 297//297 282//282
f 281//281 283//283 298//298
f 281//281 298//298 296//296
f 282//282 297//297 298//298
f 282//282 298//298 283//283
f 295//295 296//296 298//298
f 295//295 298//298 297//297
f 283//283 284//284 299//299
f 283//283 299//299 298//298
f 283//283 298//298 300//300
f 283//283 300//300 285//285
f 284//284 286//286 301//301
f 284//284 301//301 299//299
f 285//285 300//300 301//301
f 285//285 301//301 286//286
f 298//298 299//299 301//301
f 298//298 301//301 300//300
f 287//287 288//288 303//303
f 287//287 303//303 302//302
f 289//289 290//290 305//305
f 289//289 305//305 304//304
f 287//287 302//302 306//306
f 287//287 306//306 291//291
f 288//288 292//292 307//307
f 288//288 307//307 303//303
f 291//291 306//306 307//307
f 291//291 307//307 292//292
f 302//302 303//303 307//307
f 302//302 307//307 306//306
f 289//289 304//304 308//308
f 289//289 308//308 293//293
f 290//290 294//294 309//309
f 290//290 309//309 305//305
f 293//293 308//308 309//309
f 293//293 309//309 294//294
f 304//304 305//305 309//309
f 304//304 309//309 308//308
f 310//310 314//314 315//315
f 310//310 315//315 311//311
f 312//312 316//316 317//317
f 312//312 317//317 313//313
f 310//310 311//311 319//319
f 310//310 319//319 318//318
f 312//312 313//313 321//321
f 312//312 321//321 320//320
f 310//310 318//318 322//322
f 310//310 322//322 314//314
f 311//311 315//315 323//323
f 311//311 323//323 319//319
f 314//314 322//322 323//323
f 314//314 323//323 315//315
f 318//318 319//319 323//323
f 318//318 323//323 322//322
f 312//312 320//320 324//324
f 312//312 324//324 316//316
f 313//313 317//317 325//325
f 313//313 325//325 321//321
f 316//316 324//324 325//325
f 316//316 325//325 317//317
f 320//320 321//321 325//325
f 320//320 325//325 324//324
f 326//326 332//332 333//333
f 326//326 333//333 327//327
f 328//328 334//334 335//335
f 328//328 335//335 329//329
f 330//330 336//336 337//337
f 330//330 337//337 331//331
f 338//338 344//344 345//345
f 338//338 345//345 339//339
f 340//340 346//346 347//347
f 340//340 347//347 341//341
f 342//342 348//348 349//349
f 342//342 349//349 343//343
f 326//326 327//327 351//351
f 326//326 351//351 350//350
f 328//328 329//329 353//353
f 328//328 353//353 352//352
f 330//330 331//331 355//355
f 330//330 355//355 354//354
f 326//326 350//350 356//356
f 326//326 356//356 332//332
f 327//327 333//333 357//357
f 327//327 357//357 351//351
f 332//332 356//356 357//357
f 332//332 357//357 333//333
f 350//350 351//351 357//357
f 350//350 357//357 356//356
f 328//328 352//352 358//358
f 328//328 358//358 334//334
f 329//329 335//335 359//359
f 329//329 359//359 353//353
f 334//334 358//358 359//359
f 334//334 359//359 335//335
f 352//352 353//353 359//359
f 352//352 359//359 358//358
f 330//330 354//354 360//360
f 330//330 360//360 336//336
f 331//331 337//337 361//361
f 331//331 361//361 355//355
f 336//336 360//360 361//361
f 336//336 361//361 337//337
f 354//354 355//355 361//361
f 354//354 361//361 360//360
f 338//338 339//339 363//363
f 338//338 363//363 362//362
f 340//340 341//341 365//365
f 340//340 365//365 364//364
f 342//342 343//343 367//367
f 342//342 367//367 366//366
f 338//338 362//362 368//368
f 338//338 368//368 344//344
f 339//339 345//345 369//369
f 339//339 369//369 363//363
f 344//344 368//368 369//369
f 344//344 369//369 345//345
f 362//362 363//363 369//369
f 362//362 369//369 368//368
f 340//340 364//364 370//370
f 340//340 370//370 346//346
f 341//341 347//347 371//371
f 341//341 371//371 365//365
f 346//346 370//370 371//371
f 346//346 371//371 347//347
f 364//364 365//365 371//371
f 364//364 371//371 370//370
f 342//342 366//366 372//372
f 342//342 372//372 348//348
f 343//343 349//349 373//373
f 343//343 373//373 367//367
f 348//348 372//372 373//373
f 348//348 373//373 349//349
f 366//366 367//367 373//373
f 366//366 373//373 372//372
