# car — SDF round-trip @ 80^3 (scripts/sdf-roundtrip.js, req_2604)
# source retired-source:car.obj  src_tris 180
v -0.2165 -0.4600 -1.1218
v -0.1920 -0.4612 -1.1228
v -0.1706 -0.4575 -1.1200
v 0.1722 -0.4560 -1.1186
v 0.1768 -0.4560 -1.1186
v -0.2165 -0.4480 -1.1218
v -0.1920 -0.4476 -1.1228
v -0.1706 -0.4513 -1.1200
v 0.1722 -0.4523 -1.1186
v 0.1768 -0.4523 -1.1186
v -0.2125 -0.0384 -1.1197
v -0.2051 -0.0384 -1.1197
v 0.1369 -0.0373 -1.1195
v 0.1427 -0.0373 -1.1195
v -0.2125 -0.0321 -1.1197
v -0.2051 -0.0321 -1.1197
v 0.1369 -0.0326 -1.1195
v 0.1427 -0.0326 -1.1195
v -0.2165 -0.4600 -1.1117
v -0.1920 -0.4612 -1.1112
v -0.1706 -0.4575 -1.1147
v 0.1722 -0.4560 -1.1157
v 0.1768 -0.4560 -1.1157
v -0.2165 -0.4480 -1.1117
v -0.1920 -0.4476 -1.1112
v -0.1706 -0.4513 -1.1147
v 0.1722 -0.4523 -1.1157
v 0.1768 -0.4523 -1.1157
v -0.2482 -0.0387 -1.0864
v -0.2261 -0.0385 -1.1000
v -0.2051 -0.0384 -1.1137
v 0.1369 -0.0373 -1.1146
v 0.1427 -0.0373 -1.1146
v -0.2482 -0.0300 -1.0864
v -0.2261 -0.0310 -1.1000
v -0.2051 -0.0321 -1.1137
v 0.1369 -0.0326 -1.1146
v 0.1427 -0.0326 -1.1146
v -0.4592 -0.4588 -1.0526
v -0.4364 -0.4616 -1.0564
v -0.4142 -0.4592 -1.0541
v -0.4592 -0.4497 -1.0526
v -0.4364 -0.4471 -1.0564
v -0.4142 -0.4491 -1.0541
v -0.2482 -0.0387 -1.0784
v -0.2397 -0.0387 -1.0784
v 0.4501 -0.0389 -1.0537
v 0.4606 -0.0389 -1.0537
v -0.2482 -0.0300 -1.0784
v -0.2397 -0.0300 -1.0784
v 0.4501 -0.0307 -1.0537
v 0.4606 -0.0307 -1.0537
v -0.4592 -0.4588 -1.0436
v -0.4364 -0.4616 -1.0402
v -0.4142 -0.4592 -1.0415
v -0.4592 -0.4497 -1.0436
v -0.4364 -0.4471 -1.0402
v -0.4142 -0.4491 -1.0415
v 0.4501 -0.0389 -1.0432
v 0.4606 -0.0389 -1.0432
v 0.4501 -0.0307 -1.0432
v 0.4606 -0.0307 -1.0432
v -0.2490 -0.4592 -0.9484
v -0.2269 -0.4606 -0.9492
v -0.2046 -0.4575 -0.9456
v 0.1339 -0.4588 -0.9464
v 0.1442 -0.4588 -0.9464
v 0.4500 -0.4578 -0.9474
v 0.4603 -0.4578 -0.9474
v -0.2490 -0.4472 -0.9484
v -0.2269 -0.4467 -0.9492
v -0.2046 -0.4509 -0.9456
v 0.1339 -0.4491 -0.9464
v 0.1442 -0.4491 -0.9464
v 0.4500 -0.4499 -0.9474
v 0.4603 -0.4499 -0.9474
v -0.2490 -0.4592 -0.9378
v -0.2265 -0.4625 -0.9257
v -0.2007 -0.4606 -0.9251
v 0.1339 -0.4588 -0.9365
v 0.1442 -0.4588 -0.9365
v 0.4500 -0.4578 -0.9382
v 0.4603 -0.4578 -0.9382
v -0.2490 -0.4472 -0.9378
v -0.2265 -0.4451 -0.9257
v -0.2007 -0.4479 -0.9251
v 0.1339 -0.4491 -0.9365
v 0.1442 -0.4491 -0.9365
v 0.4500 -0.4499 -0.9382
v 0.4603 -0.4499 -0.9382
v -0.2146 -0.4592 -0.9019
v -0.2027 -0.4592 -0.9019
v -0.2146 -0.4488 -0.9019
v -0.2027 -0.4488 -0.9019
v -0.4929 -0.2491 -0.8763
v -0.4713 -0.2512 -0.8784
v -0.4364 -0.2533 -0.8800
v -0.4015 -0.2555 -0.8825
v -0.3728 -0.2516 -0.8800
v -0.4946 -0.2269 -0.8786
v -0.4720 -0.2273 -0.8798
v -0.4364 -0.2352 -0.8800
v -0.4015 -0.2333 -0.8825
v -0.3728 -0.2367 -0.8800
v 0.4841 -0.2136 -0.8756
v 0.4925 -0.2136 -0.8756
v -0.4923 -0.2066 -0.8769
v -0.4841 -0.2066 -0.8769
v 0.4841 -0.2037 -0.8756
v 0.4925 -0.2037 -0.8756
v -0.4929 -0.2491 -0.8692
v -0.4713 -0.2512 -0.8664
v -0.4364 -0.2533 -0.8634
v -0.4015 -0.2555 -0.8618
v -0.3728 -0.2516 -0.8656
v -0.4946 -0.2269 -0.8676
v -0.4720 -0.2273 -0.8656
v -0.4364 -0.2352 -0.8634
v -0.4015 -0.2333 -0.8618
v -0.3728 -0.2367 -0.8656
v 0.4841 -0.2136 -0.8689
v 0.4925 -0.2136 -0.8689
v -0.4923 -0.2066 -0.8694
v -0.4841 -0.2066 -0.8694
v 0.4841 -0.2037 -0.8689
v 0.4925 -0.2037 -0.8689
v -0.1410 -0.2807 -0.6298
v -0.1380 -0.2807 -0.6298
v -0.1410 -0.2782 -0.6298
v -0.1380 -0.2782 -0.6298
v 0.3731 -0.2518 -0.6354
v 0.4015 -0.2554 -0.6391
v 0.4364 -0.2527 -0.6374
v 0.4713 -0.2508 -0.6346
v 0.4930 -0.2491 -0.6319
v -0.4925 -0.2146 -0.6322
v -0.4840 -0.2146 -0.6322
v 0.3731 -0.2369 -0.6354
v 0.4015 -0.2337 -0.6391
v 0.4364 -0.2356 -0.6374
v 0.4720 -0.2274 -0.6353
v 0.4947 -0.2269 -0.6335
v -0.4925 -0.2037 -0.6322
v -0.4840 -0.2037 -0.6322
v 0.4841 -0.2038 -0.6316
v 0.4925 -0.2038 -0.6316
v -0.4910 0.0311 -0.6322
v -0.4867 0.0311 -0.6322
v -0.1775 0.0330 -0.6308
v -0.1723 0.0330 -0.6308
v -0.4910 0.0374 -0.6322
v -0.4867 0.0374 -0.6322
v -0.1775 0.0366 -0.6308
v -0.1723 0.0366 -0.6308
v -0.1771 -0.4559 -0.5965
v -0.1724 -0.4559 -0.5965
v -0.1771 -0.4513 -0.5965
v -0.1724 -0.4513 -0.5965
v -0.1410 -0.2807 -0.6273
v -0.1380 -0.2807 -0.6273
v -0.1410 -0.2782 -0.6273
v -0.1380 -0.2782 -0.6273
v 0.3731 -0.2518 -0.6212
v 0.4015 -0.2554 -0.6188
v 0.4364 -0.2527 -0.6212
v 0.4713 -0.2508 -0.6213
v 0.4930 -0.2491 -0.6229
v -0.4925 -0.2146 -0.6226
v -0.4840 -0.2146 -0.6226
v 0.3731 -0.2369 -0.6212
v 0.4015 -0.2337 -0.6188
v 0.4364 -0.2356 -0.6212
v 0.4720 -0.2274 -0.6196
v 0.4947 -0.2269 -0.6204
v -0.4925 -0.2037 -0.6226
v -0.4840 -0.2037 -0.6226
v 0.4841 -0.2038 -0.6233
v 0.4925 -0.2038 -0.6233
v -0.4938 0.0290 -0.6109
v -0.4841 0.0290 -0.6109
v -0.1775 0.0330 -0.6265
v -0.1723 0.0330 -0.6265
v -0.4938 0.0408 -0.6109
v -0.4841 0.0408 -0.6109
v -0.1775 0.0366 -0.6265
v -0.1723 0.0366 -0.6265
v -0.2455 0.1033 -0.5946
v -0.2427 0.1033 -0.5946
v 0.1027 0.1023 -0.5950
v 0.1074 0.1023 -0.5950
v -0.2455 0.1066 -0.5946
v -0.2427 0.1066 -0.5946
v 0.1027 0.1065 -0.5950
v 0.1074 0.1065 -0.5950
v -0.1771 -0.4559 -0.5889
v -0.1724 -0.4559 -0.5889
v 0.1710 -0.4563 -0.5610
v 0.1775 -0.4563 -0.5610
v -0.1771 -0.4513 -0.5889
v -0.1724 -0.4513 -0.5889
v 0.1710 -0.4516 -0.5610
v 0.1775 -0.4516 -0.5610
v -0.4933 0.0309 -0.5895
v -0.4846 0.0309 -0.5895
v -0.4933 0.0403 -0.5895
v -0.4846 0.0403 -0.5895
v -0.2455 0.1033 -0.5923
v -0.2427 0.1033 -0.5923
v 0.1027 0.1023 -0.5920
v 0.1074 0.1023 -0.5920
v -0.2455 0.1066 -0.5923
v -0.2427 0.1066 -0.5923
v 0.1027 0.1065 -0.5920
v 0.1074 0.1065 -0.5920
v 0.1710 -0.4563 -0.5558
v 0.1775 -0.4563 -0.5558
v 0.1710 -0.4516 -0.5558
v 0.1775 -0.4516 -0.5558
v -0.4201 0.3476 -0.4899
v -0.4175 0.3476 -0.4899
v 0.2429 0.3474 -0.4901
v 0.2463 0.3474 -0.4901
v -0.4201 0.3509 -0.4899
v -0.4175 0.3509 -0.4899
v 0.2429 0.3514 -0.4901
v 0.2463 0.3514 -0.4901
v -0.4201 0.3476 -0.4875
v -0.4175 0.3476 -0.4875
v 0.2429 0.3474 -0.4872
v 0.2463 0.3474 -0.4872
v -0.4201 0.3509 -0.4875
v -0.4175 0.3509 -0.4875
v 0.2429 0.3514 -0.4872
v 0.2463 0.3514 -0.4872
v -0.2122 -0.4564 0.5558
v -0.1920 -0.4589 0.5529
v -0.1695 -0.4581 0.5538
v 0.1338 -0.4588 0.5538
v 0.1447 -0.4588 0.5538
v -0.2122 -0.4511 0.5558
v -0.1920 -0.4485 0.5529
v -0.1695 -0.4494 0.5538
v 0.1338 -0.4490 0.5538
v 0.1447 -0.4490 0.5538
v 0.1375 0.4507 0.5551
v 0.1429 0.4507 0.5551
v 0.4867 0.4515 0.5559
v 0.4910 0.4515 0.5559
v 0.1375 0.4569 0.5551
v 0.1429 0.4569 0.5551
v 0.4867 0.4565 0.5559
v 0.4910 0.4565 0.5559
v -0.2154 -0.4598 0.5760
v -0.1914 -0.4612 0.5752
v -0.1695 -0.4581 0.5631
v 0.1338 -0.4588 0.5647
v 0.1447 -0.4588 0.5647
v -0.2154 -0.4480 0.5760
v -0.1914 -0.4465 0.5752
v -0.1695 -0.4494 0.5631
v 0.1338 -0.4490 0.5647
v 0.1447 -0.4490 0.5647
v 0.1375 0.4507 0.5610
v 0.1429 0.4507 0.5610
v 0.4867 0.4515 0.5606
v 0.4910 0.4515 0.5606
v 0.1375 0.4569 0.5610
v 0.1429 0.4569 0.5610
v 0.4867 0.4565 0.5606
v 0.4910 0.4565 0.5606
v -0.2147 -0.4593 0.5993
v -0.2026 -0.4593 0.5993
v -0.2147 -0.4487 0.5993
v -0.2026 -0.4487 0.5993
v 0.1380 -0.2807 0.6273
v 0.1410 -0.2807 0.6273
v -0.4930 -0.2491 0.6229
v -0.4713 -0.2513 0.6210
v -0.4364 -0.2533 0.6208
v -0.4015 -0.2554 0.6184
v -0.3730 -0.2516 0.6210
v 0.1380 -0.2782 0.6273
v 0.1410 -0.2782 0.6273
v -0.4947 -0.2269 0.6204
v -0.4720 -0.2272 0.6195
v -0.4364 -0.2351 0.6208
v -0.4015 -0.2333 0.6184
v -0.3730 -0.2366 0.6210
v 0.4840 -0.2146 0.6226
v 0.4925 -0.2146 0.6226
v -0.4925 -0.2038 0.6233
v -0.4841 -0.2038 0.6233
v 0.4840 -0.2037 0.6226
v 0.4925 -0.2037 0.6226
v 0.4867 0.0313 0.6260
v 0.4909 0.0313 0.6260
v 0.4867 0.0381 0.6260
v 0.4909 0.0381 0.6260
v 0.1380 -0.2807 0.6298
v 0.1410 -0.2807 0.6298
v -0.4930 -0.2491 0.6319
v -0.4713 -0.2513 0.6349
v -0.4364 -0.2533 0.6379
v -0.4015 -0.2554 0.6395
v -0.3730 -0.2516 0.6356
v 0.1380 -0.2782 0.6298
v 0.1410 -0.2782 0.6298
v -0.4947 -0.2269 0.6335
v -0.4720 -0.2272 0.6355
v -0.4364 -0.2351 0.6379
v -0.4015 -0.2333 0.6395
v -0.3730 -0.2366 0.6356
v 0.4840 -0.2146 0.6322
v 0.4925 -0.2146 0.6322
v -0.4925 -0.2038 0.6316
v -0.4841 -0.2038 0.6316
v 0.4840 -0.2037 0.6322
v 0.4925 -0.2037 0.6322
v 0.4867 0.0313 0.6320
v 0.4909 0.0313 0.6320
v 0.4867 0.0381 0.6320
v 0.4909 0.0381 0.6320
v 0.3729 -0.2518 0.8658
v 0.4015 -0.2555 0.8622
v 0.4364 -0.2527 0.8639
v 0.4713 -0.2507 0.8667
v 0.4929 -0.2491 0.8692
v -0.4925 -0.2133 0.8689
v -0.4841 -0.2133 0.8689
v 0.3729 -0.2369 0.8658
v 0.4015 -0.2338 0.8622
v 0.4364 -0.2358 0.8639
v 0.4720 -0.2275 0.8659
v 0.4946 -0.2269 0.8676
v -0.4925 -0.2037 0.8689
v -0.4841 -0.2037 0.8689
v 0.4841 -0.2066 0.8694
v 0.4923 -0.2066 0.8694
v -0.1771 -0.4559 0.9045
v -0.1724 -0.4559 0.9045
v -0.1771 -0.4513 0.9045
v -0.1724 -0.4513 0.9045
v 0.3729 -0.2518 0.8798
v 0.4015 -0.2555 0.8821
v 0.4364 -0.2527 0.8796
v 0.4713 -0.2507 0.8782
v 0.4929 -0.2491 0.8763
v -0.4925 -0.2133 0.8758
v -0.4841 -0.2133 0.8758
v 0.3729 -0.2369 0.8798
v 0.4015 -0.2338 0.8821
v 0.4364 -0.2358 0.8796
v 0.4720 -0.2275 0.8796
v 0.4946 -0.2269 0.8785
v -0.4925 -0.2037 0.8758
v -0.4841 -0.2037 0.8758
v 0.4841 -0.2066 0.8769
v 0.4923 -0.2066 0.8769
v -0.4603 -0.4577 0.9382
v -0.4500 -0.4577 0.9382
v -0.1771 -0.4559 0.9120
v -0.1724 -0.4559 0.9120
v 0.1707 -0.4572 0.9397
v 0.1777 -0.4572 0.9397
v -0.4603 -0.4499 0.9382
v -0.4500 -0.4499 0.9382
v -0.1771 -0.4513 0.9120
v -0.1724 -0.4513 0.9120
v 0.1707 -0.4514 0.9397
v 0.1777 -0.4514 0.9397
v -0.4603 -0.4577 0.9476
v -0.4500 -0.4577 0.9476
v 0.1707 -0.4572 0.9451
v 0.1777 -0.4572 0.9451
v -0.4603 -0.4499 0.9476
v -0.4500 -0.4499 0.9476
v 0.1707 -0.4514 0.9451
v 0.1777 -0.4514 0.9451
v -0.2123 -0.4571 1.1144
v -0.2054 -0.4571 1.1144
v 0.1362 -0.4572 1.1148
v 0.1430 -0.4572 1.1148
v -0.2123 -0.4511 1.1144
v -0.2054 -0.4511 1.1144
v 0.1362 -0.4514 1.1148
v 0.1430 -0.4514 1.1148
v -0.4576 -0.0032 1.1145
v -0.4509 -0.0032 1.1145
v -0.1432 -0.0028 1.1147
v -0.1367 -0.0028 1.1147
v 0.2051 -0.0035 1.1143
v 0.2125 -0.0035 1.1143
v -0.4576 0.0059 1.1145
v -0.4509 0.0059 1.1145
v -0.1432 0.0057 1.1147
v -0.1367 0.0057 1.1147
v 0.2051 0.0062 1.1143
v 0.2125 0.0062 1.1143
v -0.2123 -0.4571 1.1198
v -0.2054 -0.4571 1.1198
v 0.1362 -0.4572 1.1198
v 0.1430 -0.4572 1.1198
v -0.2123 -0.4511 1.1198
v -0.2054 -0.4511 1.1198
v 0.1362 -0.4514 1.1198
v 0.1430 -0.4514 1.1198
v -0.4576 -0.0032 1.1200
v -0.4509 -0.0032 1.1200
v -0.1432 -0.0028 1.1198
v -0.1367 -0.0028 1.1198
v 0.2051 -0.0035 1.1202
v 0.2125 -0.0035 1.1202
v -0.4576 0.0059 1.1200
v -0.4509 0.0059 1.1200
v -0.1432 0.0057 1.1198
v -0.1367 0.0057 1.1198
v 0.2051 0.0062 1.1202
v 0.2125 0.0062 1.1202
vn -0.731 -0.373 -0.571
vn 0.436 -0.573 -0.694
vn 0.985 -0.041 -0.170
vn -0.791 0.343 -0.507
vn 0.768 0.195 -0.609
vn -0.711 0.556 -0.431
vn 0.461 0.702 -0.543
vn 0.873 0.467 -0.137
vn -0.331 0.923 -0.196
vn 0.402 0.854 -0.330
vn -0.636 -0.124 -0.761
vn 0.184 -0.246 -0.952
vn -0.665 -0.366 -0.651
vn 0.546 -0.539 -0.641
vn -0.560 0.510 -0.653
vn 0.118 0.722 -0.682
vn -0.571 0.585 -0.576
vn 0.404 0.720 -0.564
vn -0.797 -0.315 0.515
vn 0.538 -0.512 0.669
vn 0.928 -0.024 0.373
vn -0.568 0.200 0.799
vn 0.614 0.221 0.758
vn -0.696 0.556 0.455
vn 0.477 0.669 0.570
vn 0.818 0.457 0.350
vn -0.360 0.784 0.506
vn 0.302 0.856 0.419
vn -0.764 -0.574 -0.295
vn 0.528 -0.825 -0.200
vn 0.676 -0.432 0.598
vn -0.603 -0.555 0.573
vn 0.557 -0.485 0.674
vn -0.793 0.364 -0.488
vn 0.125 0.846 -0.518
vn 0.452 0.837 0.308
vn -0.590 0.698 0.405
vn 0.542 0.611 0.577
vn -0.949 -0.296 -0.104
vn -0.200 -0.740 -0.642
vn 0.888 -0.276 -0.368
vn -0.878 0.479 -0.015
vn -0.229 0.815 -0.533
vn 0.880 0.369 -0.299
vn -0.477 -0.670 0.569
vn 0.315 -0.668 0.674
vn -0.871 -0.488 -0.059
vn 0.485 -0.863 -0.139
vn -0.737 0.267 0.621
vn 0.466 0.246 0.850
vn -0.787 0.579 -0.212
vn 0.367 0.855 -0.368
vn -0.781 -0.173 0.600
vn -0.234 -0.535 0.812
vn 0.873 -0.282 0.397
vn -0.698 0.433 0.570
vn -0.183 0.659 0.729
vn 0.748 0.522 0.410
vn -0.579 -0.461 0.672
vn 0.223 -0.550 0.805
vn -0.693 0.323 0.644
vn 0.256 0.364 0.896
vn -0.857 -0.478 -0.193
vn 0.382 -0.506 -0.774
vn 0.565 -0.069 -0.822
vn -0.319 -0.408 -0.855
vn 0.615 -0.289 -0.733
vn -0.838 -0.438 -0.327
vn 0.418 -0.475 -0.775
vn -0.792 0.454 -0.407
vn 0.379 0.558 -0.738
vn 0.535 0.281 -0.797
vn -0.278 0.664 -0.694
vn 0.517 0.483 -0.707
vn -0.669 0.588 -0.455
vn 0.351 0.759 -0.548
vn -0.744 -0.446 0.498
vn -0.569 -0.635 0.522
vn 0.747 -0.549 -0.376
vn -0.616 -0.553 0.561
vn 0.694 -0.670 0.263
vn -0.725 -0.453 0.520
vn 0.218 -0.528 0.821
vn -0.873 0.215 0.437
vn -0.531 0.602 0.596
vn 0.689 0.669 -0.279
vn -0.692 0.644 0.328
vn 0.733 0.679 0.031
vn -0.736 0.425 0.526
vn 0.348 0.731 0.587
vn -0.576 -0.351 0.738
vn 0.282 -0.316 0.906
vn -0.456 0.380 0.805
vn 0.337 0.558 0.758
vn -0.709 -0.655 -0.262
vn -0.027 -0.820 -0.571
vn -0.451 -0.611 -0.650
vn -0.156 -0.711 -0.686
vn 0.675 -0.588 -0.447
vn -0.870 0.010 -0.494
vn 0.507 0.543 -0.669
vn -0.294 0.626 -0.722
vn -0.190 0.690 -0.698
vn 0.647 0.532 -0.546
vn -0.451 -0.647 -0.615
vn 0.549 -0.549 -0.630
vn -0.350 0.932 -0.097
vn 0.207 0.968 -0.139
vn -0.416 0.401 -0.816
vn 0.430 0.316 -0.846
vn -0.699 -0.641 0.316
vn -0.059 -0.816 0.575
vn -0.359 -0.695 0.623
vn -0.058 -0.708 0.703
vn 0.614 -0.589 0.525
vn -0.829 0.055 0.556
vn 0.436 0.653 0.619
vn -0.406 0.671 0.620
vn -0.093 0.699 0.709
vn 0.663 0.486 0.569
vn -0.472 -0.802 0.366
vn 0.497 -0.815 0.296
vn -0.314 0.876 0.365
vn 0.135 0.939 0.315
vn -0.926 0.369 0.075
vn 0.948 0.295 -0.114
vn -0.684 0.460 0.567
vn 0.205 0.620 0.757
vn -0.439 0.811 0.388
vn 0.079 0.908 0.411
vn -0.618 -0.564 -0.548
vn 0.071 -0.700 -0.711
vn 0.374 -0.700 -0.609
vn 0.006 -0.787 -0.617
vn 0.641 -0.610 -0.466
vn -0.403 -0.569 -0.717
vn 0.436 -0.572 -0.694
vn -0.660 0.495 -0.565
vn 0.095 0.702 -0.706
vn 0.413 0.660 -0.628
vn -0.435 0.600 -0.671
vn 0.748 0.060 -0.661
vn -0.569 0.350 -0.744
vn 0.619 0.384 -0.685
vn -0.291 0.826 -0.482
vn 0.362 0.724 -0.587
vn -0.191 -0.031 -0.981
vn 0.298 -0.047 -0.953
vn -0.360 -0.931 -0.066
vn 0.937 -0.342 0.074
vn -0.181 0.457 -0.871
vn 0.238 0.479 -0.845
vn -0.119 0.985 -0.123
vn 0.774 0.633 0.027
vn -0.060 -0.703 -0.709
vn 0.549 -0.607 -0.575
vn -0.219 0.073 -0.973
vn 0.765 -0.022 -0.644
vn -0.434 0.310 0.846
vn 0.074 0.334 0.940
vn -0.355 0.634 0.687
vn 0.041 0.683 0.729
vn -0.699 -0.563 0.440
vn 0.191 -0.702 0.686
vn 0.459 -0.618 0.639
vn -0.128 -0.863 0.489
vn 0.689 -0.714 0.124
vn -0.629 -0.727 0.275
vn 0.665 -0.696 0.270
vn -0.643 0.555 0.528
vn 0.192 0.694 0.693
vn 0.286 0.622 0.729
vn -0.598 0.543 0.590
vn 0.912 0.089 0.401
vn -0.604 0.627 0.492
vn 0.666 0.604 0.438
vn -0.387 0.901 0.194
vn 0.389 0.907 0.161
vn -0.556 -0.767 -0.320
vn 0.705 -0.651 -0.280
vn -0.082 -0.430 0.899
vn 0.643 -0.232 0.730
vn -0.512 0.631 -0.583
vn 0.698 0.560 -0.446
vn 0.009 0.491 0.871
vn 0.635 0.431 0.641
vn -0.806 -0.514 -0.293
vn -0.538 -0.717 -0.442
vn -0.964 -0.061 -0.258
vn -0.211 0.325 -0.922
vn -0.886 -0.051 -0.460
vn -0.564 0.076 -0.822
vn -0.660 0.682 -0.316
vn 0.067 0.937 -0.344
vn -0.063 -0.992 0.106
vn 0.821 -0.565 0.083
vn -0.170 -0.422 -0.890
vn 0.753 -0.404 -0.519
vn -0.221 0.809 0.545
vn 0.885 0.341 0.316
vn -0.238 0.726 -0.645
vn 0.695 0.515 -0.501
vn -0.259 -0.527 0.810
vn 0.409 -0.467 0.784
vn -0.289 0.162 0.944
vn 0.536 0.187 0.823
vn -0.797 -0.577 0.182
vn -0.498 -0.800 0.334
vn -0.817 -0.136 0.560
vn -0.033 -0.035 0.999
vn -0.980 -0.135 0.144
vn -0.863 -0.094 0.496
vn -0.652 0.626 0.428
vn 0.088 0.842 0.533
vn -0.131 -0.596 0.792
vn 0.870 -0.324 0.372
vn -0.156 0.882 0.444
vn 0.711 0.548 0.441
vn -0.740 -0.586 -0.331
vn -0.356 -0.789 -0.501
vn -0.730 -0.591 -0.343
vn -0.339 -0.786 -0.518
vn -0.807 -0.070 -0.586
vn -0.103 0.211 -0.972
vn -0.803 -0.076 -0.590
vn -0.081 0.224 -0.971
vn -0.720 -0.662 0.208
vn -0.281 -0.865 0.415
vn -0.717 -0.669 0.197
vn -0.266 -0.872 0.411
vn -0.958 -0.199 0.205
vn -0.005 0.126 0.992
vn -0.959 -0.197 0.206
vn 0.055 0.185 0.981
vn -0.640 -0.185 -0.746
vn -0.277 -0.414 -0.867
vn 0.853 -0.289 -0.435
vn -0.574 -0.331 -0.749
vn 0.596 -0.402 -0.695
vn -0.607 0.113 -0.786
vn -0.227 0.510 -0.830
vn 0.747 0.534 -0.395
vn -0.448 0.609 -0.655
vn 0.438 0.647 -0.625
vn -0.843 -0.522 -0.128
vn -0.005 -0.972 -0.234
vn -0.604 -0.785 -0.138
vn 0.417 -0.891 -0.178
vn -0.936 0.351 0.030
vn -0.077 0.994 0.072
vn -0.936 0.347 0.063
vn 0.847 0.529 0.040
vn -0.755 -0.516 -0.405
vn 0.736 -0.619 0.275
vn 0.878 -0.266 0.397
vn -0.592 -0.586 0.553
vn 0.609 -0.599 0.519
vn -0.768 0.466 -0.439
vn 0.621 0.709 0.333
vn 0.789 0.491 0.368
vn -0.673 0.671 0.312
vn 0.694 0.654 0.302
vn -0.710 -0.302 0.636
vn -0.008 -0.450 0.893
vn -0.509 -0.475 0.718
vn 0.312 -0.541 0.781
vn -0.663 0.340 0.668
vn -0.030 0.440 0.897
vn -0.498 0.294 0.816
vn 0.304 0.332 0.893
vn -0.597 -0.347 0.723
vn 0.309 -0.309 0.900
vn -0.481 0.429 0.765
vn 0.333 0.549 0.767
vn -0.063 0.345 -0.937
vn 0.441 0.309 -0.843
vn -0.700 -0.703 -0.122
vn 0.056 -0.857 -0.513
vn -0.432 -0.624 -0.651
vn -0.156 -0.711 -0.686
vn 0.678 -0.588 -0.441
vn -0.040 0.687 -0.725
vn 0.355 0.634 -0.687
vn -0.914 0.088 -0.397
vn 0.566 0.565 -0.600
vn -0.278 0.633 -0.722
vn -0.187 0.690 -0.699
vn 0.654 0.531 -0.540
vn -0.665 -0.696 -0.270
vn 0.629 -0.727 -0.275
vn -0.389 0.907 -0.161
vn 0.386 0.902 -0.193
vn -0.666 0.604 -0.438
vn 0.604 0.627 -0.492
vn -0.510 -0.337 -0.792
vn 0.293 -0.395 -0.871
vn -0.543 0.451 -0.708
vn 0.298 0.514 -0.804
vn -0.183 0.638 -0.748
vn 0.690 0.456 -0.562
vn -0.652 -0.602 0.460
vn -0.064 -0.772 0.633
vn -0.346 -0.697 0.628
vn -0.059 -0.709 0.703
vn 0.618 -0.584 0.526
vn -0.079 0.910 -0.407
vn 0.439 0.811 -0.388
vn -0.752 0.059 0.656
vn 0.389 0.626 0.676
vn -0.391 0.667 0.634
vn -0.090 0.697 0.711
vn 0.667 0.478 0.571
vn -0.436 -0.572 0.694
vn 0.403 -0.569 0.717
vn -0.362 0.724 0.587
vn 0.291 0.828 0.480
vn -0.619 0.384 0.685
vn 0.569 0.350 0.744
vn -0.759 -0.651 0.021
vn 0.732 -0.652 0.197
vn -0.570 0.815 0.102
vn 0.533 0.810 0.245
vn -0.613 -0.569 -0.548
vn 0.071 -0.699 -0.712
vn 0.392 -0.696 -0.601
vn -0.010 -0.838 -0.545
vn 0.690 -0.654 -0.310
vn -0.474 -0.819 -0.321
vn 0.441 -0.810 -0.386
vn -0.655 0.504 -0.563
vn 0.099 0.704 -0.703
vn 0.435 0.662 -0.611
vn -0.492 0.625 -0.606
vn 0.828 0.056 -0.557
vn -0.979 0.204 0.019
vn 0.943 0.301 -0.144
vn -0.136 0.939 -0.316
vn 0.314 0.876 -0.365
vn -0.094 -0.706 -0.702
vn 0.539 -0.595 -0.596
vn -0.287 0.138 -0.948
vn 0.750 0.016 -0.661
vn -0.696 -0.563 0.447
vn 0.191 -0.703 0.686
vn 0.484 -0.603 0.634
vn -0.046 -0.829 0.557
vn 0.693 -0.665 0.278
vn -0.558 -0.596 0.578
vn 0.449 -0.691 0.567
vn -0.636 0.557 0.534
vn 0.194 0.695 0.693
vn 0.308 0.613 0.728
vn -0.541 0.515 0.665
vn 0.864 0.005 0.504
vn -0.446 0.303 0.842
vn 0.436 0.388 0.812
vn -0.208 0.968 0.140
vn 0.351 0.931 0.097
vn -0.200 -0.528 -0.825
vn 0.711 -0.466 -0.526
vn -0.377 -0.907 0.189
vn 0.787 -0.615 0.048
vn -0.631 -0.390 -0.671
vn 0.843 -0.206 -0.497
vn -0.349 0.707 -0.615
vn 0.735 0.395 -0.552
vn -0.436 0.731 0.526
vn 0.812 0.480 0.333
vn -0.272 0.945 -0.181
vn 0.610 0.734 -0.299
vn -0.427 -0.499 0.754
vn 0.840 -0.455 0.295
vn -0.452 -0.080 0.888
vn 0.735 -0.104 0.670
vn -0.362 0.764 0.534
vn 0.683 0.580 0.443
vn -0.296 0.709 0.640
vn 0.443 0.732 0.517
vn -0.854 -0.284 -0.437
vn 0.396 -0.369 -0.841
vn -0.507 -0.086 -0.858
vn 0.575 -0.044 -0.817
vn -0.630 0.658 -0.412
vn 0.255 0.727 -0.638
vn -0.293 0.761 -0.579
vn 0.412 0.680 -0.606
vn -0.259 -0.841 -0.475
vn 0.415 -0.767 -0.488
vn -0.278 -0.849 -0.449
vn 0.337 -0.813 -0.474
vn -0.238 -0.840 -0.488
vn 0.475 -0.736 -0.482
vn -0.318 -0.473 -0.821
vn 0.853 -0.146 -0.501
vn -0.386 -0.537 -0.750
vn 0.774 -0.283 -0.566
vn -0.316 -0.370 -0.874
vn 0.883 -0.082 -0.462
vn -0.788 -0.277 0.551
vn 0.234 -0.536 0.811
vn -0.816 -0.165 0.555
vn 0.908 -0.133 0.396
vn -0.699 0.550 0.457
vn 0.165 0.842 0.514
vn -0.435 0.854 0.286
vn 0.462 0.870 0.170
vn -0.287 -0.932 0.220
vn 0.516 -0.814 0.268
vn -0.306 -0.936 0.176
vn 0.421 -0.878 0.228
vn -0.260 -0.931 0.256
vn 0.578 -0.762 0.294
vn -0.286 -0.251 0.925
vn 0.823 0.011 0.567
vn -0.409 -0.453 0.792
vn 0.804 -0.124 0.582
vn -0.238 -0.115 0.964
vn 0.823 0.070 0.563
f 1//1 6//6 7//7
f 1//1 7//7 2//2
f 2//2 7//7 8//8
f 2//2 8//8 3//3
f 4//4 9//9 10//10
f 4//4 10//10 5//5
f 11//11 15//15 16//16
f 11//11 16//16 12//12
f 13//13 17//17 18//18
f 13//13 18//18 14//14
f 1//1 2//2 20//20
f 1//1 20//20 19//19
f 2//2 3//3 21//21
f 2//2 21//21 20//20
f 4//4 5//5 23//23
f 4//4 23//23 22//22
f 1//1 19//19 24//24
f 1//1 24//24 6//6
f 6//6 24//24 25//25
f 6//6 25//25 7//7
f 19//19 20//20 25//25
f 19//19 25//25 24//24
f 3//3 8//8 26//26
f 3//3 26//26 21//21
f 7//7 25//25 26//26
f 7//7 26//26 8//8
f 20//20 21//21 26//26
f 20//20 26//26 25//25
f 4//4 22//22 27//27
f 4//4 27//27 9//9
f 5//5 10//10 28//28
f 5//5 28//28 23//23
f 9//9 27//27 28//28
f 9//9 28//28 10//10
f 22//22 23//23 28//28
f 22//22 28//28 27//27
f 11//11 12//12 31//31
f 11//11 31//31 30//30
f 13//13 14//14 33//33
f 13//13 33//33 32//32
f 11//11 30//30 35//35
f 11//11 35//35 15//15
f 29//29 34//34 35//35
f 29//29 35//35 30//30
f 12//12 16//16 36//36
f 12//12 36//36 31//31
f 15//15 35//35 36//36
f 15//15 36//36 16//16
f 30//30 31//31 36//36
f 30//30 36//36 35//35
f 13//13 32//32 37//37
f 13//13 37//37 17//17
f 14//14 18//18 38//38
f 14//14 38//38 33//33
f 17//17 37//37 38//38
f 17//17 38//38 18//18
f 32//32 33//33 38//38
f 32//32 38//38 37//37
f 39//39 42//42 43//43
f 39//39 43//43 40//40
f 40//40 43//43 44//44
f 40//40 44//44 41//41
f 29//29 30//30 46//46
f 29//29 46//46 45//45
f 29//29 45//45 49//49
f 29//29 49//49 34//34
f 30//30 35//35 50//50
f 30//30 50//50 46//46
f 34//34 49//49 50//50
f 34//34 50//50 35//35
f 45//45 46//46 50//50
f 45//45 50//50 49//49
f 47//47 51//51 52//52
f 47//47 52//52 48//48
f 39//39 40//40 54//54
f 39//39 54//54 53//53
f 40//40 41//41 55//55
f 40//40 55//55 54//54
f 39//39 53//53 56//56
f 39//39 56//56 42//42
f 42//42 56//56 57//57
f 42//42 57//57 43//43
f 53//53 54//54 57//57
f 53//53 57//57 56//56
f 41//41 44//44 58//58
f 41//41 58//58 55//55
f 43//43 57//57 58//58
f 43//43 58//58 44//44
f 54//54 55//55 58//58
f 54//54 58//58 57//57
f 47//47 48//48 60//60
f 47//47 60//60 59//59
f 47//47 59//59 61//61
f 47//47 61//61 51//51
f 48//48 52//52 62//62
f 48//48 62//62 60//60
f 51//51 61//61 62//62
f 51//51 62//62 52//52
f 59//59 60//60 62//62
f 59//59 62//62 61//61
f 63//63 70//70 71//71
f 63//63 71//71 64//64
f 64//64 71//71 72//72
f 64//64 72//72 65//65
f 66//66 73//73 74//74
f 66//66 74//74 67//67
f 68//68 75//75 76//76
f 68//68 76//76 69//69
f 63//63 64//64 78//78
f 63//63 78//78 77//77
f 64//64 65//65 79//79
f 64//64 79//79 78//78
f 66//66 67//67 81//81
f 66//66 81//81 80//80
f 68//68 69//69 83//83
f 68//68 83//83 82//82
f 63//63 77//77 84//84
f 63//63 84//84 70//70
f 70//70 84//84 85//85
f 70//70 85//85 71//71
f 77//77 78//78 85//85
f 77//77 85//85 84//84
f 65//65 72//72 86//86
f 65//65 86//86 79//79
f 71//71 85//85 86//86
f 71//71 86//86 72//72
f 66//66 80//80 87//87
f 66//66 87//87 73//73
f 67//67 74//74 88//88
f 67//67 88//88 81//81
f 73//73 87//87 88//88
f 73//73 88//88 74//74
f 80//80 81//81 88//88
f 80//80 88//88 87//87
f 68//68 82//82 89//89
f 68//68 89//89 75//75
f 69//69 76//76 90//90
f 69//69 90//90 83//83
f 75//75 89//89 90//90
f 75//75 90//90 76//76
f 82//82 83//83 90//90
f 82//82 90//90 89//89
f 78//78 79//79 92//92
f 78//78 92//92 91//91
f 78//78 91//91 93//93
f 78//78 93//93 85//85
f 79//79 86//86 94//94
f 79//79 94//94 92//92
f 85//85 93//93 94//94
f 85//85 94//94 86//86
f 91//91 92//92 94//94
f 91//91 94//94 93//93
f 95//95 100//100 101//101
f 95//95 101//101 96//96
f 96//96 101//101 102//102
f 96//96 102//102 97//97
f 97//97 102//102 103//103
f 97//97 103//103 98//98
f 98//98 103//103 104//104
f 98//98 104//104 99//99
f 100//100 107//107 108//108
f 100//100 108//108 101//101
f 105//105 109//109 110//110
f 105//105 110//110 106//106
f 95//95 96//96 112//112
f 95//95 112//112 111//111
f 96//96 97//97 113//113
f 96//96 113//113 112//112
f 97//97 98//98 114//114
f 97//97 114//114 113//113
f 98//98 99//99 115//115
f 98//98 115//115 114//114
f 95//95 111//111 116//116
f 95//95 116//116 100//100
f 111//111 112//112 117//117
f 111//111 117//117 116//116
f 101//101 117//117 118//118
f 101//101 118//118 102//102
f 112//112 113//113 118//118
f 112//112 118//118 117//117
f 102//102 118//118 119//119
f 102//102 119//119 103//103
f 113//113 114//114 119//119
f 113//113 119//119 118//118
f 99//99 104//104 120//120
f 99//99 120//120 115//115
f 103//103 119//119 120//120
f 103//103 120//120 104//104
f 114//114 115//115 120//120
f 114//114 120//120 119//119
f 105//105 106//106 122//122
f 105//105 122//122 121//121
f 100//100 116//116 123//123
f 100//100 123//123 107//107
f 101//101 108//108 124//124
f 101//101 124//124 117//117
f 107//107 123//123 124//124
f 107//107 124//124 108//108
f 116//116 117//117 124//124
f 116//116 124//124 123//123
f 105//105 121//121 125//125
f 105//105 125//125 109//109
f 106//106 110//110 126//126
f 106//106 126//126 122//122
f 109//109 125//125 126//126
f 109//109 126//126 110//110
f 121//121 122//122 126//126
f 121//121 126//126 125//125
f 127//127 129//129 130//130
f 127//127 130//130 128//128
f 131//131 138//138 139//139
f 131//131 139//139 132//132
f 132//132 139//139 140//140
f 132//132 140//140 133//133
f 133//133 140//140 141//141
f 133//133 141//141 134//134
f 134//134 141//141 142//142
f 134//134 142//142 135//135
f 136//136 143//143 144//144
f 136//136 144//144 137//137
f 141//141 145//145 146//146
f 141//141 146//146 142//142
f 147//147 151//151 152//152
f 147//147 152//152 148//148
f 149//149 153//153 154//154
f 149//149 154//154 150//150
f 155//155 157//157 158//158
f 155//155 158//158 156//156
f 127//127 128//128 160//160
f 127//127 160//160 159//159
f 127//127 159//159 161//161
f 127//127 161//161 129//129
f 128//128 130//130 162//162
f 128//128 162//162 160//160
f 129//129 161//161 162//162
f 129//129 162//162 130//130
f 159//159 160//160 162//162
f 159//159 162//162 161//161
f 131//131 132//132 164//164
f 131//131 164//164 163//163
f 132//132 133//133 165//165
f 132//132 165//165 164//164
f 133//133 134//134 166//166
f 133//133 166//166 165//165
f 134//134 135//135 167//167
f 134//134 167//167 166//166
f 136//136 137//137 169//169
f 136//136 169//169 168//168
f 131//131 163//163 170//170
f 131//131 170//170 138//138
f 138//138 170//170 171//171
f 138//138 171//171 139//139
f 163//163 164//164 171//171
f 163//163 171//171 170//170
f 139//139 171//171 172//172
f 139//139 172//172 140//140
f 164//164 165//165 172//172
f 164//164 172//172 171//171
f 140//140 172//172 173//173
f 140//140 173//173 141//141
f 165//165 166//166 173//173
f 165//165 173//173 172//172
f 135//135 142//142 174//174
f 135//135 174//174 167//167
f 166//166 167//167 174//174
f 166//166 174//174 173//173
f 136//136 168//168 175//175
f 136//136 175//175 143//143
f 137//137 144//144 176//176
f 137//137 176//176 169//169
f 143//143 175//175 176//176
f 143//143 176//176 144//144
f 168//168 169//169 176//176
f 168//168 176//176 175//175
f 141//141 173//173 177//177
f 141//141 177//177 145//145
f 142//142 146//146 178//178
f 142//142 178//178 174//174
f 145//145 177//177 178//178
f 145//145 178//178 146//146
f 173//173 174//174 178//178
f 173//173 178//178 177//177
f 147//147 148//148 180//180
f 147//147 180//180 179//179
f 149//149 150//150 182//182
f 149//149 182//182 181//181
f 147//147 179//179 183//183
f 147//147 183//183 151//151
f 148//148 152//152 184//184
f 148//148 184//184 180//180
f 151//151 183//183 184//184
f 151//151 184//184 152//152
f 149//149 181//181 185//185
f 149//149 185//185 153//153
f 150//150 154//154 186//186
f 150//150 186//186 182//182
f 153//153 185//185 186//186
f 153//153 186//186 154//154
f 181//181 182//182 186//186
f 181//181 186//186 185//185
f 187//187 191//191 192//192
f 187//187 192//192 188//188
f 189//189 193//193 194//194
f 189//189 194//194 190//190
f 155//155 156//156 196//196
f 155//155 196//196 195//195
f 155//155 195//195 199//199
f 155//155 199//199 157//157
f 156//156 158//158 200//200
f 156//156 200//200 196//196
f 157//157 199//199 200//200
f 157//157 200//200 158//158
f 195//195 196//196 200//200
f 195//195 200//200 199//199
f 197//197 201//201 202//202
f 197//197 202//202 198//198
f 179//179 180//180 204//204
f 179//179 204//204 203//203
f 179//179 203//203 205//205
f 179//179 205//205 183//183
f 180//180 184//184 206//206
f 180//180 206//206 204//204
f 183//183 205//205 206//206
f 183//183 206//206 184//184
f 203//203 204//204 206//206
f 203//203 206//206 205//205
f 187//187 188//188 208//208
f 187//187 208//208 207//207
f 189//189 190//190 210//210
f 189//189 210//210 209//209
f 187//187 207//207 211//211
f 187//187 211//211 191//191
f 188//188 192//192 212//212
f 188//188 212//212 208//208
f 191//191 211//211 212//212
f 191//191 212//212 192//192
f 207//207 208//208 212//212
f 207//207 212//212 211//211
f 189//189 209//209 213//213
f 189//189 213//213 193//193
f 190//190 194//194 214//214
f 190//190 214//214 210//210
f 193//193 213//213 214//214
f 193//193 214//214 194//194
f 209//209 210//210 214//214
f 209//209 214//214 213//213
f 197//197 198//198 216//216
f 197//197 216//216 215//215
f 197//197 215//215 217//217
f 197//197 217//217 201//201
f 198//198 202//202 218//218
f 198//198 218//218 216//216
f 201//201 217//217 218//218
f 201//201 218//218 202//202
f 215//215 216//216 218//218
f 215//215 218//218 217//217
f 219//219 223//223 224//224
f 219//219 224//224 220//220
f 221//221 225//225 226//226
f 221//221 226//226 222//222
f 219//219 220//220 228//228
f 219//219 228//228 227//227
f 221//221 222//222 230//230
f 221//221 230//230 229//229
f 219//219 227//227 231//231
f 219//219 231//231 223//223
f 220//220 224//224 232//232
f 220//220 232//232 228//228
f 223//223 231//231 232//232
f 223//223 232//232 224//224
f 227//227 228//228 232//232
f 227//227 232//232 231//231
f 221//221 229//229 233//233
f 221//221 233//233 225//225
f 222//222 226//226 234//234
f 222//222 234//234 230//230
f 225//225 233//233 234//234
f 225//225 234//234 226//226
f 229//229 230//230 234//234
f 229//229 234//234 233//233
f 235//235 240//240 241//241
f 235//235 241//241 236//236
f 236//236 241//241 242//242
f 236//236 242//242 237//237
f 238//238 243//243 244//244
f 238//238 244//244 239//239
f 245//245 249//249 250//250
f 245//245 250//250 246//246
f 247//247 251//251 252//252
f 247//247 252//252 248//248
f 235//235 236//236 254//254
f 235//235 254//254 253//253
f 236//236 237//237 255//255
f 236//236 255//255 254//254
f 238//238 239//239 257//257
f 238//238 257//257 256//256
f 235//235 253//253 258//258
f 235//235 258//258 240//240
f 240//240 258//258 259//259
f 240//240 259//259 241//241
f 237//237 242//242 260//260
f 237//237 260//260 255//255
f 241//241 259//259 260//260
f 241//241 260//260 242//242
f 254//254 255//255 260//260
f 254//254 260//260 259//259
f 238//238 256//256 261//261
f 238//238 261//261 243//243
f 239//239 244//244 262//262
f 239//239 262//262 257//257
f 243//243 261//261 262//262
f 243//243 262//262 244//244
f 256//256 257//257 262//262
f 256//256 262//262 261//261
f 245//245 246//246 264//264
f 245//245 264//264 263//263
f 247//247 248//248 266//266
f 247//247 266//266 265//265
f 245//245 263//263 267//267
f 245//245 267//267 249//249
f 246//246 250//250 268//268
f 246//246 268//268 264//264
f 249//249 267//267 268//268
f 249//249 268//268 250//250
f 263//263 264//264 268//268
f 263//263 268//268 267//267
f 247//247 265//265 269//269
f 247//247 269//269 251//251
f 248//248 252//252 270//270
f 248//248 270//270 266//266
f 251//251 269//269 270//270
f 251//251 270//270 252//252
f 265//265 266//266 270//270
f 265//265 270//270 269//269
f 253//253 254//254 272//272
f 253//253 272//272 271//271
f 253//253 271//271 273//273
f 253//253 273//273 258//258
f 254//254 259//259 274//274
f 254//254 274//274 272//272
f 258//258 273//273 274//274
f 258//258 274//274 259//259
f 271//271 272//272 274//274
f 271//271 274//274 273//273
f 275//275 282//282 283//283
f 275//275 283//283 276//276
f 277//277 284//284 285//285
f 277//277 285//285 278//278
f 278//278 285//285 286//286
f 278//278 286//286 279//279
f 279//279 286//286 287//287
f 279//279 287//287 280//280
f 280//280 287//287 288//288
f 280//280 288//288 281//281
f 284//284 291//291 292//292
f 284//284 292//292 285//285
f 289//289 293//293 294//294
f 289//289 294//294 290//290
f 295//295 297//297 298//298
f 295//295 298//298 296//296
f 275//275 276//276 300//300
f 275//275 300//300 299//299
f 277//277 278//278 302//302
f 277//277 302//302 301//301
f 278//278 279//279 303//303
f 278//278 303//303 302//302
f 279//279 280//280 304//304
f 279//279 304//304 303//303
f 280//280 281//281 305//305
f 280//280 305//305 304//304
f 275//275 299//299 306//306
f 275//275 306//306 282//282
f 276//276 283//283 307//307
f 276//276 307//307 300//300
f 282//282 306//306 307//307
f 282//282 307//307 283//283
f 299//299 300//300 307//307
f 299//299 307//307 306//306
f 277//277 301//301 308//308
f 277//277 308//308 284//284
f 301//301 302//302 309//309
f 301//301 309//309 308//308
f 285//285 309//309 310//310
f 285//285 310//310 286//286
f 302//302 303//303 310//310
f 302//302 310//310 309//309
f 286//286 310//310 311//311
f 286//286 311//311 287//287
f 303//303 304//304 311//311
f 303//303 311//311 310//310
f 281//281 288//288 312//312
f 281//281 312//312 305//305
f 287//287 311//311 312//312
f 287//287 312//312 288//288
f 304//304 305//305 312//312
f 304//304 312//312 311//311
f 289//289 290//290 314//314
f 289//289 314//314 313//313
f 284//284 308//308 315//315
f 284//284 315//315 291//291
f 285//285 292//292 316//316
f 285//285 316//316 309//309
f 291//291 315//315 316//316
f 291//291 316//316 292//292
f 308//308 309//309 316//316
f 308//308 316//316 315//315
f 289//289 313//313 317//317
f 289//289 317//317 293//293
f 290//290 294//294 318//318
f 290//290 318//318 314//314
f 293//293 317//317 318//318
f 293//293 318//318 294//294
f 313//313 314//314 318//318
f 313//313 318//318 317//317
f 295//295 296//296 320//320
f 295//295 320//320 319//319
f 295//295 319//319 321//321
f 295//295 321//321 297//297
f 296//296 298//298 322//322
f 296//296 322//322 320//320
f 297//297 321//321 322//322
f 297//297 322//322 298//298
f 319//319 320//320 322//322
f 319//319 322//322 321//321
f 323//323 330//330 331//331
f 323//323 331//331 324//324
f 324//324 331//331 332//332
f 324//324 332//332 325//325
f 325//325 332//332 333//333
f 325//325 333//333 326//326
f 326//326 333//333 334//334
f 326//326 334//334 327//327
f 328//328 335//335 336//336
f 328//328 336//336 329//329
f 333//333 337//337 338//338
f 333//333 338//338 334//334
f 339//339 341//341 342//342
f 339//339 342//342 340//340
f 323//323 324//324 344//344
f 323//323 344//344 343//343
f 324//324 325//325 345//345
f 324//324 345//345 344//344
f 325//325 326//326 346//346
f 325//325 346//346 345//345
f 326//326 327//327 347//347
f 326//326 347//347 346//346
f 328//328 329//329 349//349
f 328//328 349//349 348//348
f 323//323 343//343 350//350
f 323//323 350//350 330//330
f 330//330 350//350 351//351
f 330//330 351//351 331//331
f 343//343 344//344 351//351
f 343//343 351//351 350//350
f 331//331 351//351 352//352
f 331//331 352//352 332//332
f 344//344 345//345 352//352
f 344//344 352//352 351//351
f 332//332 352//352 353//353
f 332//332 353//353 333//333
f 345//345 346//346 353//353
f 345//345 353//353 352//352
f 327//327 334//334 354//354
f 327//327 354//354 347//347
f 346//346 347//347 354//354
f 346//346 354//354 353//353
f 328//328 348//348 355//355
f 328//328 355//355 335//335
f 329//329 336//336 356//356
f 329//329 356//356 349//349
f 335//335 355//355 356//356
f 335//335 356//356 336//336
f 348//348 349//349 356//356
f 348//348 356//356 355//355
f 333//333 353//353 357//357
f 333//333 357//357 337//337
f 334//334 338//338 358//358
f 334//334 358//358 354//354
f 337//337 357//357 358//358
f 337//337 358//358 338//338
f 353//353 354//354 358//358
f 353//353 358//358 357//357
f 339//339 340//340 362//362
f 339//339 362//362 361//361
f 359//359 365//365 366//366
f 359//359 366//366 360//360
f 339//339 361//361 367//367
f 339//339 367//367 341//341
f 340//340 342//342 368//368
f 340//340 368//368 362//362
f 341//341 367//367 368//368
f 341//341 368//368 342//342
f 361//361 362//362 368//368
f 361//361 368//368 367//367
f 363//363 369//369 370//370
f 363//363 370//370 364//364
f 359//359 360//360 372//372
f 359//359 372//372 371//371
f 363//363 364//364 374//374
f 363//363 374//374 373//373
f 359//359 371//371 375//375
f 359//359 375//375 365//365
f 360//360 366//366 376//376
f 360//360 376//376 372//372
f 365//365 375//375 376//376
f 365//365 376//376 366//366
f 371//371 372//372 376//376
f 371//371 376//376 375//375
f 363//363 373//373 377//377
f 363//363 377//377 369//369
f 364//364 370//370 378//378
f 364//364 378//378 374//374
f 369//369 377//377 378//378
f 369//369 378//378 370//370
f 373//373 374//374 378//378
f 373//373 378//378 377//377
f 379//379 383//383 384//384
f 379//379 384//384 380//380
f 381//381 385//385 386//386
f 381//381 386//386 382//382
f 387//387 393//393 394//394
f 387//387 394//394 388//388
f 389//389 395//395 396//396
f 389//389 396//396 390//390
f 391//391 397//397 398//398
f 391//391 398//398 392//392
f 379//379 380//380 400//400
f 379//379 400//400 399//399
f 381//381 382//382 402//402
f 381//381 402//402 401//401
f 379//379 399//399 403//403
f 379//379 403//403 383//383
f 380//380 384//384 404//404
f 380//380 404//404 400//400
f 383//383 403//403 404//404
f 383//383 404//404 384//384
f 399//399 400//400 404//404
f 399//399 404//404 403//403
f 381//381 401//401 405//405
f 381//381 405//405 385//385
f 382//382 386//386 406//406
f 382//382 406//406 402//402
f 385//385 405//405 406//406
f 385//385 406//406 386//386
f 401//401 402//402 406//406
f 401//401 406//406 405//405
f 387//387 388//388 408//408
f 387//387 408//408 407//407
f 389//389 390//390 410//410
f 389//389 410//410 409//409
f 391//391 392//392 412//412
f 391//391 412//412 411//411
f 387//387 407//407 413//413
f 387//387 413//413 393//393
f 388//388 394//394 414//414
f 388//388 414//414 408//408
f 393//393 413//413 414//414
f 393//393 414//414 394//394
f 407//407 408//408 414//414
f 407//407 414//414 413//413
f 389//389 409//409 415//415
f 389//389 415//415 395//395
f 390//390 396//396 416//416
f 390//390 416//416 410//410
f 395//395 415//415 416//416
f 395//395 416//416 396//396
f 409//409 410//410 416//416
f 409//409 416//416 415//415
f 391//391 411//411 417//417
f 391//391 417//417 397//397
f 392//392 398//398 418//418
f 392//392 418//418 412//412
f 397//397 417//417 418//418
f 397//397 418//418 398//398
f 411//411 412//412 418//418
f 411//411 418//418 417//417
