# Made in Blockbench 5.1.4
mtllib car.mtl

o mesh
v 0.5 0.5 1.125
v 0.5 0.4375 -1.0625
v 0.5 0 1.125
v 0.5 0 -1.0625
v -0.5 0.5 1.125
v -0.5 0.4375 -1.0625
v -0.5 0 1.125
v -0.5 0 -1.0625
v 0.5 0.5 -0.875
v -0.5 0.5 -0.875
v -0.5 0 -0.9375
v 0.5 0 -0.9375
v 0.5 0.5 -0.625
v -0.5 0.5 -0.625
v -0.5 0 -0.5625
v 0.5 0 -0.5625
v 0.5 0.5 0.875
v -0.5 0.5 0.875
v -0.5 0 0.9375
v 0.5 0 0.9375
v -0.5 0.5 0.625
v 0.5 0.5 0.625
v 0.5 0 0.5625
v -0.5 0 0.5625
v -0.1875 0.5 1.125
v -0.1875 0 1.125
v -0.1875 0 0.9375
v -0.1875 0 0.5625
v -0.1875 0 -0.5625
v -0.1875 0 -0.9375
v -0.1875 0 -1.125
v -0.1875 0.4375 -1.125
v -0.1875 0.5 -0.875
v -0.1875 0.5 -0.625
v -0.1875 0.5 0.625
v -0.1875 0.5 0.875
v 0.15625 0.5 1.125
v 0.15625 0 1.125
v 0.15625 0 0.9375
v 0.15625 0 0.5625
v 0.15625 0 -0.5625
v 0.15625 0 -0.9375
v 0.15625 0 -1.125
v 0.15625 0.4375 -1.125
v 0.15625 0.5 -0.875
v 0.15625 0.5 -0.625
v 0.15625 0.5 0.625
v 0.15625 0.5 0.875
v -0.5 0.25 0.625
v -0.5 0.25 -0.625
v -0.5 0.25 -0.875
v -0.5 0.25 -1.0625
v -0.1875 0.25 -1.125
v 0.15625 0.25 -1.125
v 0.5 0.25 -1.0625
v 0.5 0.25 -0.875
v 0.5 0.25 -0.625
v 0.5 0.25 0.625
v 0.5 0.25 0.875
v 0.5 0.25 1.125
v 0.15625 0.25 1.125
v -0.1875 0.25 1.125
v -0.5 0.25 1.125
v -0.5 0.25 0.875
v 0.125 0.1875 0.875
v 0.125 0.1875 0.625
v -0.125 0.1875 0.625
v -0.125 0.1875 0.875
v 0.125 0.1875 -0.625
v 0.125 0.1875 -0.875
v -0.125 0.1875 -0.875
v -0.125 0.1875 -0.625
v 0.5 0.9375 -0.4375
v 0.15625 0.9375 -0.4375
v 0.15625 0.9375 0.5625
v 0.5 0.9375 0.5625
v -0.1875 0.9375 0.5625
v -0.1875 0.9375 -0.4375
v -0.5 0.9375 0.5625
v -0.5 0.9375 -0.4375
v -0.5 0.9375 0.09375
v -0.5 0.5 0
v -0.5 0.25 0
v -0.5 0 0
v -0.1875 0 0
v 0.15625 0 0
v 0.5 0 0
v 0.5 0.25 0
v 0.5 0.5 0
v 0.5 0.9375 0.09375
v 0.15625 0.9375 0.09375
v -0.1875 0.9375 0.09375
vt 0.765625 0.890625
vt 0.765625 0.828125
vt 0.8125 0.828125
vt 0.8125 0.875
vt 0.265625 0.625
vt 0.265625 0.578125
vt 0.3125 0.578125
vt 0.3125 0.640625
vt 0.5390206297646354 0.4355765625
vt 0.6171456297646354 0.4355765625
vt 0.6171456297646354 0.5
vt 0.5390206297646354 0.48484218749999997
vt 0 0.453125
vt 0.078125 0.4375
vt 0.078125 0.484375
vt 0 0.484375
vt 0 0.421875
vt 0 0.359375
vt 0.078125 0.359375
vt 0.078125 0.421875
vt 0.44524375 0.203125
vt 0.44524375 0.15625
vt 0.524915625 0.15625
vt 0.524915625 0.203125
vt 0.5390206297646354 0.3730765625
vt 0.6171456297646354 0.3730765625
vt 0.6171456297646354 0.4355765625
vt 0.5390206297646354 0.4355765625
vt 0.3125 0.640625
vt 0.3125 0.578125
vt 0.375 0.578125
vt 0.375 0.640625
vt 0.703125 0.890625
vt 0.703125 0.828125
vt 0.765625 0.828125
vt 0.765625 0.890625
vt 0.53125 0.28125
vt 0.609375 0.28125
vt 0.609375 0.34375
vt 0.53125 0.34375
vt 0.6875 0.640625
vt 0.6875 0.578125
vt 0.75 0.578125
vt 0.75 0.640625
vt 0.328125 0.890625
vt 0.328125 0.828125
vt 0.390625 0.828125
vt 0.390625 0.890625
vt 0.53125 0.21875
vt 0.609375 0.21875
vt 0.609375 0.28125
vt 0.53125 0.28125
vt 0.75 0.640625
vt 0.75 0.578125
vt 0.8125 0.578125
vt 0.8125 0.640625
vt 0 0.953125
vt 0.078125 0.953125
vt 0.078125 1
vt 0 1
vt 0.265625 0.890625
vt 0.265625 0.828125
vt 0.328125 0.828125
vt 0.328125 0.890625
vt 0.265625 0.5
vt 0.265625 0.3671875
vt 0.34375 0.3671875
vt 0.34375 0.5
vt 0.703125 0.890625
vt 0.546875 0.890625
vt 0.546875 0.828125
vt 0.703125 0.828125
vt 0.078125 0.578125
vt 0.078125 0.71875
vt 0 0.71875
vt 0 0.578125
vt 0.375 0.578125
vt 0.53125 0.578125
vt 0.53125 0.640625
vt 0.375 0.640625
vt 0.078125 0.421875
vt 0.078125 0.359375
vt 0.1640625 0.359375
vt 0.1640625 0.421875
vt 0.078125 0.953125
vt 0.1640625 0.953125
vt 0.1640625 1
vt 0.078125 1
vt 0.078125 0.859375
vt 0.1640625 0.859375
vt 0.1640625 0.953125
vt 0.078125 0.953125
vt 0.1640625 0.578125
vt 0.1640625 0.71875
vt 0.078125 0.71875
vt 0.078125 0.578125
vt 0.078125 0.484375
vt 0.1640625 0.484375
vt 0.1640625 0.578125
vt 0.078125 0.578125
vt 0.078125 0.4375
vt 0.1640625 0.4375
vt 0.1640625 0.484375
vt 0.078125 0.484375
vt 0.35930625 0.203125
vt 0.35930625 0.15625
vt 0.44524375 0.15625
vt 0.44524375 0.203125
vt 0.6171456297646354 0.4355765625
vt 0.7030831297646354 0.4355765625
vt 0.7030831297646354 0.5
vt 0.6171456297646354 0.5
vt 0.6171456297646354 0.3730765625
vt 0.7030831297646354 0.3730765625
vt 0.7030831297646354 0.4355765625
vt 0.6171456297646354 0.4355765625
vt 0.34375 0.5
vt 0.34375 0.3671875
vt 0.4296875 0.3671875
vt 0.4296875 0.5
vt 0.609375 0.28125
vt 0.6953125 0.28125
vt 0.6953125 0.34375
vt 0.609375 0.34375
vt 0.609375 0.21875
vt 0.6953125 0.21875
vt 0.6953125 0.28125
vt 0.609375 0.28125
vt 0.1640625 0.421875
vt 0.1640625 0.359375
vt 0.25 0.359375
vt 0.25 0.421875
vt 0.25 1
vt 0.1640625 1
vt 0.1640625 0.953125
vt 0.25 0.953125
vt 0.25 0.578125
vt 0.25 0.71875
vt 0.1640625 0.71875
vt 0.1640625 0.578125
vt 0.25 0.484375
vt 0.1640625 0.484375
vt 0.1640625 0.4375
vt 0.25 0.453125
vt 0.271959375 0.203125
vt 0.271959375 0.15625
vt 0.35930625 0.15625
vt 0.35930625 0.203125
vt 0.7891043702353646 0.48484009366313163
vt 0.7030831297646354 0.5
vt 0.7030831297646354 0.4355769604117816
vt 0.7889375223162605 0.43557607560483225
vt 0.7890206297646354 0.4355765625
vt 0.7030831297646354 0.4355765625
vt 0.7030831297646354 0.3730765625
vt 0.7890206297646354 0.3730765625
vt 0.4296875 0.5
vt 0.4296875 0.3671875
vt 0.515625 0.3671875
vt 0.515625 0.5
vt 0.78125 0.34375
vt 0.6953125 0.34375
vt 0.6953125 0.28125
vt 0.78125 0.28125
vt 0.78125 0.28125
vt 0.6953125 0.28125
vt 0.6953125 0.21875
vt 0.78125 0.21875
vt 0.390625 0.515625
vt 0.53125 0.515625
vt 0.53125 0.578125
vt 0.375 0.578125
vt 0.296875 0.515625
vt 0.3125 0.578125
vt 0.265625 0.578125
vt 0.265625 0.515625
vt 0.524915625 0.09375
vt 0.524915625 0.15625
vt 0.44524375 0.15625
vt 0.44524375 0.09375
vt 0.44524375 0.09375
vt 0.44524375 0.15625
vt 0.35930625 0.15625
vt 0.35930625 0.09375
vt 0.35930625 0.09375
vt 0.35930625 0.15625
vt 0.271959375 0.15625
vt 0.271959375 0.09375
vt 0.8125 0.765625
vt 0.8125 0.828125
vt 0.765625 0.828125
vt 0.78125 0.765625
vt 0.703125 0.828125
vt 0.546875 0.828125
vt 0.546875 0.765625
vt 0.6875 0.765625
vt 0.3125 0.765625
vt 0.328125 0.828125
vt 0.265625 0.828125
vt 0.265625 0.765625
vt 0.25 0.296875
vt 0.25 0.359375
vt 0.1640625 0.359375
vt 0.1640625 0.296875
vt 0.1640625 0.296875
vt 0.1640625 0.359375
vt 0.078125 0.359375
vt 0.078125 0.296875
vt 0.078125 0.296875
vt 0.078125 0.359375
vt 0 0.359375
vt 0 0.296875
vt 0.8125 0.515625
vt 0.8125 0.578125
vt 0.75 0.578125
vt 0.765625 0.515625
vt 0.796875 0.34375
vt 0.796875 0.25
vt 0.859375 0.25
vt 0.859375 0.34375
vt 0.8125 0.75
vt 0.8125 0.65625
vt 0.875 0.65625
vt 0.875 0.75
vt 0.8125 0.5
vt 0.8125 0.40625
vt 0.875 0.40625
vt 0.875 0.5
vt 0.8125 0.234375
vt 0.8125 0.140625
vt 0.875 0.140625
vt 0.875 0.234375
vt 0.84375 0.5625
vt 0.828125 0.515625
vt 0.921875 0.515625
vt 0.90625 0.5625
vt 0.828125 0.9851765625
vt 0.8359375 0.9375
vt 0.921875 0.9375
vt 0.921875 1
vt 0.265625 1
vt 0.265625 0.9375
vt 0.3515625 0.9375
vt 0.359375 0.984840625
vt 0.125 0.140625
vt 0.109375 0.09375
vt 0.203125 0.09375
vt 0.1875 0.140625
vt 0.265625 0.75
vt 0.265625 0.6875
vt 0.34375 0.6875
vt 0.359375 0.7348421875
vt 0.828125 0.907053125
vt 0.84375 0.859375
vt 0.921875 0.859375
vt 0.921875 0.921875
vt 0.890625 0.390625
vt 0.875 0.34375
vt 0.96875 0.34375
vt 0.953125 0.390625
vt 0.828125 0.8289265625
vt 0.84375 0.78125
vt 0.921875 0.78125
vt 0.921875 0.84375
vt 0.703125 0.75
vt 0.703125 0.6875
vt 0.78125 0.6875
vt 0.796875 0.734840625
vt 0.015625 0.140625
vt 0 0.09375
vt 0.09375 0.09375
vt 0.078125 0.140625
vt 0.828125 0.625803125
vt 0.8359375 0.578125
vt 0.921875 0.578125
vt 0.921875 0.640625
vt 0.71875 1
vt 0.71875 0.9375
vt 0.8046875 0.9375
vt 0.8125 0.9848421875
vt 0.0859375 0.28125
vt 0 0.28125
vt 0 0.16225468749999994
vt 0.0859375 0.16225468749999994
vt 0.796875 0.203125
vt 0.7109375 0.203125
vt 0.7109375 0.09263906249999998
vt 0.796875 0.09263906249999998
vt 0.65625 1
vt 0.5234375 1
vt 0.546875 0.890625
vt 0.703125 0.890625
vt 0.7109375 0.203125
vt 0.625 0.203125
vt 0.625 0.09263906249999998
vt 0.7109375 0.09263906249999998
vt 0.171875 0.28125
vt 0.0859375 0.28125
vt 0.0859375 0.16225468749999994
vt 0.171875 0.16225468749999994
vt 0.625 0.203125
vt 0.546875 0.203125
vt 0.546875 0.09263906249999998
vt 0.625 0.09263906249999998
vt 0.25 0.28125
vt 0.171875 0.28125
vt 0.171875 0.16225468749999994
vt 0.25 0.16225468749999994
vt 0.375 0.640625
vt 0.53125 0.640625
vt 0.5546875 0.75
vt 0.421875 0.75
vt 0.671875 0.75
vt 0.5546875 0.75
vt 0.53125 0.640625
vt 0.6875 0.640625
vt 0.6875 0.640625
vt 0.53125 0.640625
vt 0.53125 0.578125
vt 0.6875 0.578125
vt 0.6875 0.578125
vt 0.53125 0.578125
vt 0.53125 0.515625
vt 0.671875 0.515625
vt 0 0.859375
vt 0 0.71875
vt 0.078125 0.71875
vt 0.078125 0.859375
vt 0.078125 0.859375
vt 0.078125 0.71875
vt 0.1640625 0.71875
vt 0.1640625 0.859375
vt 0.1640625 0.859375
vt 0.1640625 0.71875
vt 0.25 0.71875
vt 0.25 0.859375
vt 0.40625 0.765625
vt 0.546875 0.765625
vt 0.546875 0.828125
vt 0.390625 0.828125
vt 0.390625 0.828125
vt 0.546875 0.828125
vt 0.546875 0.890625
vt 0.390625 0.890625
vt 0.390625 0.890625
vt 0.546875 0.890625
vt 0.5234375 1
vt 0.40625 1
vt 0.515625 0.25
vt 0.515625 0.3671875
vt 0.4296875 0.3671875
vt 0.4296875 0.25
vt 0.4296875 0.25
vt 0.4296875 0.3671875
vt 0.34375 0.3671875
vt 0.34375 0.25
vt 0.34375 0.25
vt 0.34375 0.3671875
vt 0.265625 0.3671875
vt 0.265625 0.25
vn 1 0 0
vn -1 0 0
vn 0 0.9701425001453319 -0.24253562503633297
vn 0 -1 0
vn 0 0 1
vn -0.19611613513818407 0 -0.9805806756909203
vn 0 1 0
vn -1 0 0
vn 1 0 0
vn 0 1 0
vn -1 0 0
vn 1 0 0
vn 0 1 0
vn -1 0 0
vn 0 -1 0
vn 1 0 0
vn 0 1 0
vn 1 0 0
vn 0 -1 0
vn -1 0 0
vn 0 0 1
vn 0 -1 0
vn 0 -1 0
vn 0 -1 0
vn 0 -1 0
vn 0 -1 0
vn 0 0 -1
vn 0 0.9701425001453319 -0.24253562503633297
vn 0 1 0
vn 0 1 0
vn 0 1 0
vn 0 1 0
vn 0 0 1
vn 0 -1 0
vn 0 -1 0
vn 0 -1 0
vn 0.17888543819998318 0 -0.9838699100999075
vn 0.044054573363672654 0.9692006140007984 -0.2423001535001996
vn 0 1 0
vn 0 1 0
vn 0 1 0
vn 0 1 0
vn -1 0 0
vn -1 0 0
vn -0.19611613513818404 0 -0.9805806756909202
vn 0 0 -1
vn 0.17888543819998318 0 -0.9838699100999074
vn 1 0 0
vn 1 0 0
vn 1 0 0
vn 0 0 1
vn 0 0 1
vn 0 0 1
vn -1 0 0
vn 0.1643989873053573 -0.9863939238321437 0
vn -0.1643989873053573 -0.9863939238321437 0
vn 0.1643989873053573 -0.9863939238321437 0
vn -0.1643989873053573 -0.9863939238321437 0
vn 0.9863939238321437 0.1643989873053573 0
vn 0 -0.316227766016838 0.948683298050514
vn 0 -0.24253562503633297 -0.9701425001453319
vn -0.948683298050514 0.316227766016838 0
vn 0 -0.24253562503633297 0.9701425001453319
vn 0 -0.316227766016838 -0.948683298050514
vn -0.948683298050514 0.316227766016838 0
vn 0 -0.316227766016838 -0.948683298050514
vn 0 -0.24253562503633297 0.9701425001453319
vn 0.9863939238321437 0.1643989873053573 0
vn 0 -0.316227766016838 0.948683298050514
vn 0 -0.24253562503633297 -0.9701425001453319
vn 0 0.39391929857916774 -0.919145030018058
vn 0 0.14142135623730953 0.9899494936611667
vn 1 0 0
vn 0 0.14142135623730953 0.9899494936611667
vn 0 0.39391929857916774 -0.919145030018058
vn 0 0.14142135623730953 0.9899494936611667
vn 0 0.39391929857916774 -0.919145030018058
vn -1 0 0
vn -1 0 0
vn -1 0 0
vn -1 0 0
vn 0 -1 0
vn 0 -1 0
vn 0 -1 0
vn 1 0 0
vn 1 0 0
vn 1 0 0
vn 0 1 0
vn 0 1 0
vn 0 1 0
usemtl m_ae6dcba7-9498-2005-eff0-d7128b7b01c3
f 9/1/1 56/2/1 55/3/1 2/4/1
f 6/5/2 52/6/2 51/7/2 10/8/2
f 10/9/3 33/10/3 32/11/3 6/12/3
f 8/13/4 31/14/4 30/15/4 11/16/4
f 5/17/5 63/18/5 62/19/5 25/20/5
f 32/21/6 53/22/6 52/23/6 6/24/6
f 14/25/7 34/26/7 33/27/7 10/28/7
f 10/29/8 51/30/8 50/31/8 14/32/8
f 13/33/9 57/34/9 56/35/9 9/36/9
f 18/37/10 36/38/10 35/39/10 21/40/10
f 21/41/11 49/42/11 64/43/11 18/44/11
f 17/45/12 59/46/12 58/47/12 22/48/12
f 5/49/13 25/50/13 36/51/13 18/52/13
f 18/53/14 64/54/14 63/55/14 5/56/14
f 19/57/15 27/58/15 26/59/15 7/60/15
f 1/61/16 60/62/16 59/63/16 17/64/16
f 80/65/17 81/66/17 92/67/17 78/68/17
f 13/69/18 89/70/18 88/71/18 57/72/18
f 29/73/19 85/74/19 84/75/19 15/76/19
f 50/77/20 83/78/20 82/79/20 14/80/20
f 25/81/21 62/82/21 61/83/21 37/84/21
f 27/85/22 39/86/22 38/87/22 26/88/22
f 28/89/23 40/90/23 39/91/23 27/92/23
f 41/93/24 86/94/24 85/95/24 29/96/24
f 30/97/25 42/98/25 41/99/25 29/100/25
f 31/101/26 43/102/26 42/103/26 30/104/26
f 44/105/27 54/106/27 53/107/27 32/108/27
f 33/109/28 45/110/28 44/111/28 32/112/28
f 34/113/29 46/114/29 45/115/29 33/116/29
f 78/117/30 92/118/30 91/119/30 74/120/30
f 36/121/31 48/122/31 47/123/31 35/124/31
f 25/125/32 37/126/32 48/127/32 36/128/32
f 37/129/33 61/130/33 60/131/33 1/132/33
f 3/133/34 38/134/34 39/135/34 20/136/34
f 16/137/35 87/138/35 86/139/35 41/140/35
f 12/141/36 42/142/36 43/143/36 4/144/36
f 2/145/37 55/146/37 54/147/37 44/148/37
f 2/149/38 44/150/38 45/151/38 9/152/38
f 9/153/39 45/154/39 46/155/39 13/156/39
f 74/157/40 91/158/40 90/159/40 73/160/40
f 22/161/41 47/162/41 48/163/41 17/164/41
f 17/165/42 48/166/42 37/167/42 1/168/42
f 15/169/43 84/170/43 83/171/43 50/172/43
f 11/173/44 51/174/44 52/175/44 8/176/44
f 8/177/45 52/178/45 53/179/45 31/180/45
f 31/181/46 53/182/46 54/183/46 43/184/46
f 43/185/47 54/186/47 55/187/47 4/188/47
f 4/189/48 55/190/48 56/191/48 12/192/48
f 57/193/49 88/194/49 87/195/49 16/196/49
f 20/197/50 59/198/50 60/199/50 3/200/50
f 3/201/51 60/202/51 61/203/51 38/204/51
f 38/205/52 61/206/52 62/207/52 26/208/52
f 26/209/53 62/210/53 63/211/53 7/212/53
f 7/213/54 63/214/54 64/215/54 19/216/54
f 59/217/55 65/218/55 66/219/55 58/220/55
f 49/221/56 67/222/56 68/223/56 64/224/56
f 57/225/57 69/226/57 70/227/57 56/228/57
f 51/229/58 71/230/58 72/231/58 50/232/58
f 65/233/59 39/234/59 40/235/59 66/236/59
f 66/237/60 40/238/60 23/239/60 58/240/60
f 59/241/61 20/242/61 39/243/61 65/244/61
f 67/245/62 28/246/62 27/247/62 68/248/62
f 49/249/63 24/250/63 28/251/63 67/252/63
f 68/253/64 27/254/64 19/255/64 64/256/64
f 71/257/65 30/258/65 29/259/65 72/260/65
f 72/261/66 29/262/66 15/263/66 50/264/66
f 51/265/67 11/266/67 30/267/67 71/268/67
f 69/269/68 41/270/68 42/271/68 70/272/68
f 70/273/69 42/274/69 12/275/69 56/276/69
f 57/277/70 16/278/70 41/279/70 69/280/70
f 74/281/71 73/282/71 13/283/71 46/284/71
f 76/285/72 75/286/72 47/287/72 22/288/72
f 73/289/73 90/290/73 89/291/73 13/292/73
f 75/293/74 77/294/74 35/295/74 47/296/74
f 78/297/75 74/298/75 46/299/75 34/300/75
f 77/301/76 79/302/76 21/303/76 35/304/76
f 80/305/77 78/306/77 34/307/77 14/308/77
f 14/309/78 82/310/78 81/311/78 80/312/78
f 79/313/79 81/314/79 82/315/79 21/316/79
f 21/317/80 82/318/80 83/319/80 49/320/80
f 49/321/81 83/322/81 84/323/81 24/324/81
f 24/325/82 84/326/82 85/327/82 28/328/82
f 28/329/83 85/330/83 86/331/83 40/332/83
f 40/333/84 86/334/84 87/335/84 23/336/84
f 23/337/85 87/338/85 88/339/85 58/340/85
f 58/341/86 88/342/86 89/343/86 22/344/86
f 22/345/87 89/346/87 90/347/87 76/348/87
f 76/349/88 90/350/88 91/351/88 75/352/88
f 75/353/89 91/354/89 92/355/89 77/356/89
f 77/357/90 92/358/90 81/359/90 79/360/90